<?xml version="1.0" encoding="UTF-8" standalone="no"?>
<svg
   inkscape:version="1.2.2 (732a01da63, 2022-12-09)"
   sodipodi:docname="Cr0wn60-switch_plate.svg"
   id="svg1566"
   viewBox="0.0000 0.0000 297.0022 210.0072"
   height="210.0072mm"
   width="297.0022mm"
   version="1.1"
   xmlns:inkscape="http://www.inkscape.org/namespaces/inkscape"
   xmlns:sodipodi="http://sodipodi.sourceforge.net/DTD/sodipodi-0.dtd"
   xmlns="http://www.w3.org/2000/svg"
   xmlns:svg="http://www.w3.org/2000/svg"
   xmlns:rdf="http://www.w3.org/1999/02/22-rdf-syntax-ns#"
   xmlns:cc="http://creativecommons.org/ns#"
   xmlns:dc="http://purl.org/dc/elements/1.1/">
  <sodipodi:namedview
     id="namedview722"
     pagecolor="#ffffff"
     bordercolor="#666666"
     borderopacity="1.0"
     inkscape:showpageshadow="2"
     inkscape:pageopacity="0.0"
     inkscape:pagecheckerboard="0"
     inkscape:deskcolor="#d1d1d1"
     inkscape:document-units="mm"
     showgrid="false"
     inkscape:zoom="6.0926204"
     inkscape:cx="1014.3419"
     inkscape:cy="181.53109"
     inkscape:window-width="1857"
     inkscape:window-height="1057"
     inkscape:window-x="-8"
     inkscape:window-y="-8"
     inkscape:window-maximized="1"
     inkscape:current-layer="g1208" />
  <defs
     id="defs1570" />
  <title
     id="title132">SVG Image created as Cr0wn60-brd.svg date 2023/07/20 01:07:07 </title>
  <desc
     id="desc134">Image generated by PCBNEW </desc>
  <g
     style="fill:#000000;fill-opacity:0;stroke:#000000;stroke-width:0.12;stroke-linecap:round;stroke-linejoin:round;stroke-opacity:1"
     id="g1208"
     transform="translate(19.9136, 16.4592)">
    <g
       id="g1550 2U">
      <path
         d="M 271.4625,44.625 H 228.6"
         id="path140" />
      <path
         d="m 228.6,28.575 h 42.8625"
         id="path142" />
      <path
         d="m 271.4625,28.575 v 19.05"
         id="path144" />
      <path
         d="M 271.4625,47.625 H 228.6"
         id="path146" />
      <path
         d="M 228.6,47.625 V 28.575"
         id="path148" />
    </g>
    <g
       id="g1543 2U"
       style="display:inline">
      <path
         d="M 119.0625,69.675 H 161.925"
         id="path150" />
      <path
         d="M 119.0625,66.675 H 161.925"
         id="path152" />
      <path
         d="m 161.925,66.675 v 19.05"
         id="path154" />
      <path
         d="M 161.925,85.725 H 119.0625"
         id="path156" />
      <path
         d="M 119.0625,85.725 V 66.675"
         id="path158" />
    </g>
    <g
       id="g1536 2U"
       style="display:inline">
      <path
         d="m 76.2,69.675 h 42.8625"
         id="path160" />
      <path
         d="m 76.2,66.675 h 42.8625"
         id="path162" />
      <path
         d="m 119.0625,66.675 v 19.05"
         id="path164" />
      <path
         d="M 119.0625,85.725 H 76.2"
         id="path166" />
      <path
         d="M 76.2,85.725 V 66.675"
         id="path168" />
    </g>
    <g
       id="g1529 1U"
       style="display:inline">
      <path
         d="M 33.3375,69.675 H 57.15"
         id="path170" />
      <path
         d="M 57.15,82.725 H 33.3375"
         id="path172" />
      <path
         d="M 33.3375,66.675 H 57.15"
         id="path174" />
      <path
         d="m 57.15,66.675 v 19.05"
         id="path176" />
      <path
         d="M 57.15,85.725 H 33.3375"
         id="path178" />
      <path
         d="M 33.3375,85.725 V 66.675"
         id="path180" />
    </g>
    <g
       id="g1521 1U"
       style="display:inline">
      <path
         d="M 204.7875,69.675 H 228.6"
         id="path182" />
      <path
         d="M 228.6,82.725 H 204.7875"
         id="path184" />
      <path
         d="M 204.7875,66.675 H 228.6"
         id="path186" />
      <path
         d="m 228.6,66.675 v 19.05"
         id="path188" />
      <path
         d="M 228.6,85.725 H 204.7875"
         id="path190" />
      <path
         d="M 204.7875,85.725 V 66.675"
         id="path192" />
    </g>
    <g
       id="g1513 1U"
       style="display:inline">
      <path
         d="m 180.975,69.675 h 23.8125"
         id="path194" />
      <path
         d="M 204.7875,82.725 H 180.975"
         id="path196" />
      <path
         d="m 180.975,66.675 h 23.8125"
         id="path198" />
      <path
         d="m 204.7875,66.675 v 19.05"
         id="path200" />
      <path
         d="M 204.7875,85.725 H 180.975"
         id="path202" />
      <path
         d="M 180.975,85.725 V 66.675"
         id="path204" />
    </g>
    <g
       id="g1505 1U"
       style="display:inline">
      <path
         d="M -14.2875,50.625 H 9.525"
         id="path206" />
      <path
         d="M 9.525,63.675 H -14.2875"
         id="path208" />
      <path
         d="M -14.2875,47.625 H 9.525"
         id="path210" />
      <path
         d="m 9.525,47.625 v 19.05"
         id="path212" />
      <path
         d="M 9.525,66.675 H -14.2875"
         id="path214" />
      <path
         d="M -14.2875,66.675 V 47.625"
         id="path216" />
    </g>
    <g
       id="g1497 1U"
       style="display:inline">
      <path
         d="M 9.525,69.675 H 33.3375"
         id="path218" />
      <path
         d="M 33.3375,82.725 H 9.525"
         id="path220" />
      <path
         d="M 9.525,66.675 H 33.3375"
         id="path222" />
      <path
         d="m 33.3375,66.675 v 19.05"
         id="path224" />
      <path
         d="M 33.3375,85.725 H 9.525"
         id="path226" />
      <path
         d="M 9.525,85.725 V 66.675"
         id="path228" />
    </g>
    <g
       id="g1489 1U">
      <path
         d="M -14.2875,31.575 H 19.05"
         id="path230" />
      <path
         d="M -14.2875,44.625 H 19.05"
         id="path232" />
      <path
         d="M -14.2875,28.575 H 19.05"
         id="path234" />
      <path
         d="m 19.05,28.575 v 19.05"
         id="path236" />
      <path
         d="M 19.05,47.625 H -14.2875"
         id="path238" />
      <path
         d="M -14.2875,47.625 V 28.575"
         id="path240" />
    </g>
    <g
       id="g1481 1U">
      <path
         d="m 238.125,50.625 h 33.3375"
         id="path242" />
      <path
         d="m 238.125,63.675 h 33.3375"
         id="path244" />
      <path
         d="m 238.125,47.625 h 33.3375"
         id="path246" />
      <path
         d="m 271.4625,47.625 v 19.05"
         id="path248" />
      <path
         d="M 271.4625,66.675 H 238.125"
         id="path250" />
      <path
         d="M 238.125,66.675 V 47.625"
         id="path252" />
    </g>
    <g
       id="g1473 1U">
      <path
         d="m 242.8875,12.525 h 28.575"
         id="path254" />
      <path
         d="m 242.8875,25.575 h 28.575"
         id="path256" />
      <path
         d="m 242.8875,9.525 h 28.575"
         id="path258" />
      <path
         d="m 271.4625,9.525 v 19.05"
         id="path260" />
      <path
         d="m 271.4625,28.575 h -28.575"
         id="path262" />
      <path
         d="M 242.8875,28.575 V 9.525"
         id="path264" />
    </g>
    <g
       id="g1465 1U">
      <path
         d="m -14.2875,12.525 h 28.575"
         id="path266" />
      <path
         d="m -14.2875,25.575 h 28.575"
         id="path268" />
      <path
         d="m -14.2875,9.525 h 28.575"
         id="path270" />
      <path
         d="m 14.2875,9.525 v 19.05"
         id="path272" />
      <path
         d="m 14.2875,28.575 h -28.575"
         id="path274" />
      <path
         d="M -14.2875,28.575 V 9.525"
         id="path276" />
    </g>
    <g
       id="g1457 1U">
      <path
         d="m 33.3375,9.525 h 19.05"
         id="path278" />
      <path
         d="m 33.3375,12.525 h 19.05"
         id="path280" />
      <path
         d="m 33.3375,25.575 h 19.05"
         id="path282" />
      <path
         d="M 33.3375,28.575 V 9.525"
         id="path284" />
      <path
         d="m 52.3875,9.525 v 19.05"
         id="path286" />
      <path
         d="m 52.3875,28.575 h -19.05"
         id="path288" />
    </g>
    <g
       id="g1449 1U">
      <path
         d="M 209.55,28.575 H 228.6"
         id="path290" />
      <path
         d="M 209.55,31.575 H 228.6"
         id="path292" />
      <path
         d="M 209.55,44.625 H 228.6"
         id="path294" />
      <path
         d="M 209.55,47.625 V 28.575"
         id="path296" />
      <path
         d="m 228.6,28.575 v 19.05"
         id="path298" />
      <path
         d="M 228.6,47.625 H 209.55"
         id="path300" />
    </g>
    <g
       id="g1441 1U">
      <path
         d="M 76.2,28.575 H 95.25"
         id="path302" />
      <path
         d="M 76.2,31.575 H 95.25"
         id="path304" />
      <path
         d="M 76.2,44.625 H 95.25"
         id="path306" />
      <path
         d="M 76.2,47.625 V 28.575"
         id="path308" />
      <path
         d="m 95.25,28.575 v 19.05"
         id="path310" />
      <path
         d="M 95.25,47.625 H 76.2"
         id="path312" />
    </g>
    <g
       id="g1433 1U">
      <path
         d="m 28.575,-9.525 h 19.05"
         id="path314" />
      <path
         d="m 28.575,-6.525 h 19.05"
         id="path316" />
      <path
         d="m 28.575,6.525 h 19.05"
         id="path318" />
      <path
         d="M 28.575,9.525 V -9.525"
         id="path320" />
      <path
         d="M 47.625,-9.525 V 9.525"
         id="path322" />
      <path
         d="M 47.625,9.525 H 28.575"
         id="path324" />
    </g>
    <g
       id="g1425 1U">
      <path
         d="m 33.3375,47.625 h 19.05"
         id="path326" />
      <path
         d="m 33.3375,50.625 h 19.05"
         id="path328" />
      <path
         d="m 33.3375,63.675 h 19.05"
         id="path330" />
      <path
         d="M 33.3375,66.675 V 47.625"
         id="path332" />
      <path
         d="m 52.3875,47.625 v 19.05"
         id="path334" />
      <path
         d="m 52.3875,66.675 h -19.05"
         id="path336" />
    </g>
    <g
       id="g1417 1U">
      <path
         d="m 219.075,-9.525 h 19.05"
         id="path338" />
      <path
         d="m 219.075,-6.525 h 19.05"
         id="path340" />
      <path
         d="m 219.075,6.525 h 19.05"
         id="path342" />
      <path
         d="M 219.075,9.525 V -9.525"
         id="path344" />
      <path
         d="M 238.125,-9.525 V 9.525"
         id="path346" />
      <path
         d="m 238.125,9.525 h -19.05"
         id="path348" />
    </g>
    <g
       id="g1409 1U">
      <path
         d="m 119.0625,9.525 h 19.05"
         id="path350" />
      <path
         d="m 119.0625,12.525 h 19.05"
         id="path352" />
      <path
         d="m 119.0625,25.575 h 19.05"
         id="path354" />
      <path
         d="M 119.0625,28.575 V 9.525"
         id="path356" />
      <path
         d="m 138.1125,9.525 v 19.05"
         id="path358" />
      <path
         d="m 138.1125,28.575 h -19.05"
         id="path360" />
    </g>
    <g
       id="g1401 1U">
      <path
         d="m 161.925,66.675 h 19.05"
         id="path362" />
      <path
         d="m 161.925,69.675 h 19.05"
         id="path364" />
      <path
         d="m 161.925,82.725 h 19.05"
         id="path366" />
      <path
         d="M 161.925,85.725 V 66.675"
         id="path368" />
      <path
         d="m 180.975,66.675 v 19.05"
         id="path370" />
      <path
         d="m 180.975,85.725 h -19.05"
         id="path372" />
    </g>
    <g
       id="g1393 1U">
      <path
         d="m 161.925,-9.525 h 19.05"
         id="path374" />
      <path
         d="m 161.925,-6.525 h 19.05"
         id="path376" />
      <path
         d="m 161.925,6.525 h 19.05"
         id="path378" />
      <path
         d="M 161.925,9.525 V -9.525"
         id="path380" />
      <path
         d="M 180.975,-9.525 V 9.525"
         id="path382" />
      <path
         d="m 180.975,9.525 h -19.05"
         id="path384" />
    </g>
    <g
       id="g1385 1U">
      <path
         d="m 119.0625,47.625 h 19.05"
         id="path386" />
      <path
         d="m 119.0625,50.625 h 19.05"
         id="path388" />
      <path
         d="m 119.0625,63.675 h 19.05"
         id="path390" />
      <path
         d="M 119.0625,66.675 V 47.625"
         id="path392" />
      <path
         d="m 138.1125,47.625 v 19.05"
         id="path394" />
      <path
         d="m 138.1125,66.675 h -19.05"
         id="path396" />
    </g>
    <g
       id="g1377 1U">
      <path
         d="m 176.2125,47.625 h 19.05"
         id="path398" />
      <path
         d="m 176.2125,50.625 h 19.05"
         id="path400" />
      <path
         d="m 176.2125,63.675 h 19.05"
         id="path402" />
      <path
         d="M 176.2125,66.675 V 47.625"
         id="path404" />
      <path
         d="m 195.2625,47.625 v 19.05"
         id="path406" />
      <path
         d="m 195.2625,66.675 h -19.05"
         id="path408" />
    </g>
    <g
       id="g1369 1U">
      <path
         d="m 180.975,-9.525 h 19.05"
         id="path410" />
      <path
         d="m 180.975,-6.525 h 19.05"
         id="path412" />
      <path
         d="m 180.975,6.525 h 19.05"
         id="path414" />
      <path
         d="M 180.975,9.525 V -9.525"
         id="path416" />
      <path
         d="M 200.025,-9.525 V 9.525"
         id="path418" />
      <path
         d="m 200.025,9.525 h -19.05"
         id="path420" />
    </g>
    <g
       id="g1361 1U">
      <path
         d="m 214.3125,9.525 h 19.05"
         id="path422" />
      <path
         d="m 214.3125,12.525 h 19.05"
         id="path424" />
      <path
         d="m 214.3125,25.575 h 19.05"
         id="path426" />
      <path
         d="M 214.3125,28.575 V 9.525"
         id="path428" />
      <path
         d="m 233.3625,9.525 v 19.05"
         id="path430" />
      <path
         d="m 233.3625,28.575 h -19.05"
         id="path432" />
    </g>
    <g
       id="g1353 1U">
      <path
         d="m 214.3125,47.625 h 19.05"
         id="path434" />
      <path
         d="m 214.3125,50.625 h 19.05"
         id="path436" />
      <path
         d="m 214.3125,63.675 h 19.05"
         id="path438" />
      <path
         d="M 214.3125,66.675 V 47.625"
         id="path440" />
      <path
         d="m 233.3625,47.625 v 19.05"
         id="path442" />
      <path
         d="m 233.3625,66.675 h -19.05"
         id="path444" />
    </g>
    <g
       id="g1345 1U">
      <path
         d="m 157.1625,9.525 h 19.05"
         id="path446" />
      <path
         d="m 157.1625,12.525 h 19.05"
         id="path448" />
      <path
         d="m 157.1625,25.575 h 19.05"
         id="path450" />
      <path
         d="M 157.1625,28.575 V 9.525"
         id="path452" />
      <path
         d="m 176.2125,9.525 v 19.05"
         id="path454" />
      <path
         d="m 176.2125,28.575 h -19.05"
         id="path456" />
    </g>
    <g
       id="g1337 1U">
      <path
         d="m 176.2125,9.525 h 19.05"
         id="path458" />
      <path
         d="m 176.2125,12.525 h 19.05"
         id="path460" />
      <path
         d="m 176.2125,25.575 h 19.05"
         id="path462" />
      <path
         d="M 176.2125,28.575 V 9.525"
         id="path464" />
      <path
         d="m 195.2625,9.525 v 19.05"
         id="path466" />
      <path
         d="m 195.2625,28.575 h -19.05"
         id="path468" />
    </g>
    <g
       id="g1329 1U">
      <path
         d="m 138.1125,47.625 h 19.05"
         id="path470" />
      <path
         d="m 138.1125,50.625 h 19.05"
         id="path472" />
      <path
         d="m 138.1125,63.675 h 19.05"
         id="path474" />
      <path
         d="M 138.1125,66.675 V 47.625"
         id="path476" />
      <path
         d="m 157.1625,47.625 v 19.05"
         id="path478" />
      <path
         d="m 157.1625,66.675 h -19.05"
         id="path480" />
    </g>
    <g
       id="g1321 1U">
      <path
         d="m -14.2875,-9.525 h 19.05"
         id="path482" />
      <path
         d="m -14.2875,-6.525 h 19.05"
         id="path484" />
      <path
         d="m -14.2875,6.525 h 19.05"
         id="path486" />
      <path
         d="M -14.2875,9.525 V -9.525"
         id="path488" />
      <path
         d="M 4.7625,-9.525 V 9.525"
         id="path490" />
      <path
         d="m 4.7625,9.525 h -19.05"
         id="path492" />
    </g>
    <g
       id="g1313 1U">
      <path
         d="m 157.1625,47.625 h 19.05"
         id="path494" />
      <path
         d="m 157.1625,50.625 h 19.05"
         id="path496" />
      <path
         d="m 157.1625,63.675 h 19.05"
         id="path498" />
      <path
         d="M 157.1625,66.675 V 47.625"
         id="path500" />
      <path
         d="m 176.2125,47.625 v 19.05"
         id="path502" />
      <path
         d="m 176.2125,66.675 h -19.05"
         id="path504" />
    </g>
    <g
       id="g1305 1U">
      <path
         d="M 57.15,66.675 H 76.2"
         id="path506" />
      <path
         d="M 57.15,69.675 H 76.2"
         id="path508" />
      <path
         d="M 57.15,82.725 H 76.2"
         id="path510" />
      <path
         d="M 57.15,85.725 V 66.675"
         id="path512" />
      <path
         d="m 76.2,66.675 v 19.05"
         id="path514" />
      <path
         d="M 76.2,85.725 H 57.15"
         id="path516" />
    </g>
    <g
       id="g1297 1U">
      <path
         d="M 38.1,28.575 H 57.15"
         id="path518" />
      <path
         d="M 38.1,31.575 H 57.15"
         id="path520" />
      <path
         d="M 38.1,44.625 H 57.15"
         id="path522" />
      <path
         d="M 38.1,47.625 V 28.575"
         id="path524" />
      <path
         d="m 57.15,28.575 v 19.05"
         id="path526" />
      <path
         d="M 57.15,47.625 H 38.1"
         id="path528" />
    </g>
    <g
       id="g1289 1U">
      <path
         d="m 52.3875,47.625 h 19.05"
         id="path530" />
      <path
         d="m 52.3875,50.625 h 19.05"
         id="path532" />
      <path
         d="m 52.3875,63.675 h 19.05"
         id="path534" />
      <path
         d="M 52.3875,66.675 V 47.625"
         id="path536" />
      <path
         d="m 71.4375,47.625 v 19.05"
         id="path538" />
      <path
         d="m 71.4375,66.675 h -19.05"
         id="path540" />
    </g>
    <g
       id="g1281 1U">
      <path
         d="M 95.25,28.575 H 114.3"
         id="path542" />
      <path
         d="M 95.25,31.575 H 114.3"
         id="path544" />
      <path
         d="M 95.25,44.625 H 114.3"
         id="path546" />
      <path
         d="M 95.25,47.625 V 28.575"
         id="path548" />
      <path
         d="m 114.3,28.575 v 19.05"
         id="path550" />
      <path
         d="M 114.3,47.625 H 95.25"
         id="path552" />
    </g>
    <g
       id="g1273 1U">
      <path
         d="M 19.05,28.575 H 38.1"
         id="path554" />
      <path
         d="M 19.05,31.575 H 38.1"
         id="path556" />
      <path
         d="M 19.05,44.625 H 38.1"
         id="path558" />
      <path
         d="M 19.05,47.625 V 28.575"
         id="path560" />
      <path
         d="m 38.1,28.575 v 19.05"
         id="path562" />
      <path
         d="M 38.1,47.625 H 19.05"
         id="path564" />
    </g>
    <g
       id="g1265 1U">
      <path
         d="m 142.875,-9.525 h 19.05"
         id="path566" />
      <path
         d="m 142.875,-6.525 h 19.05"
         id="path568" />
      <path
         d="m 142.875,6.525 h 19.05"
         id="path570" />
      <path
         d="M 142.875,9.525 V -9.525"
         id="path572" />
      <path
         d="M 161.925,-9.525 V 9.525"
         id="path574" />
      <path
         d="m 161.925,9.525 h -19.05"
         id="path576" />
    </g>
    <g
       id="g1257 1U">
      <path
         d="m 190.5,28.575 h 19.05"
         id="path578" />
      <path
         d="m 190.5,31.575 h 19.05"
         id="path580" />
      <path
         d="m 190.5,44.625 h 19.05"
         id="path582" />
      <path
         d="M 190.5,47.625 V 28.575"
         id="path584" />
      <path
         d="m 209.55,28.575 v 19.05"
         id="path586" />
      <path
         d="M 209.55,47.625 H 190.5"
         id="path588" />
    </g>
    <g
       id="g1249 1U">
      <path
         d="m 52.3875,9.525 h 19.05"
         id="path590" />
      <path
         d="m 52.3875,12.525 h 19.05"
         id="path592" />
      <path
         d="m 52.3875,25.575 h 19.05"
         id="path594" />
      <path
         d="M 52.3875,28.575 V 9.525"
         id="path596" />
      <path
         d="m 71.4375,9.525 v 19.05"
         id="path598" />
      <path
         d="m 71.4375,28.575 h -19.05"
         id="path600" />
    </g>
    <g
       id="g1241 1U">
      <path
         d="m 90.4875,47.625 h 19.05"
         id="path602" />
      <path
         d="m 90.4875,50.625 h 19.05"
         id="path604" />
      <path
         d="m 90.4875,63.675 h 19.05"
         id="path606" />
      <path
         d="M 90.4875,66.675 V 47.625"
         id="path608" />
      <path
         d="m 109.5375,47.625 v 19.05"
         id="path610" />
      <path
         d="m 109.5375,66.675 h -19.05"
         id="path612" />
    </g>
    <g
       id="g1233 1U">
      <path
         d="M 133.35,28.575 H 152.4"
         id="path614" />
      <path
         d="M 133.35,31.575 H 152.4"
         id="path616" />
      <path
         d="M 133.35,44.625 H 152.4"
         id="path618" />
      <path
         d="M 133.35,47.625 V 28.575"
         id="path620" />
      <path
         d="m 152.4,28.575 v 19.05"
         id="path622" />
      <path
         d="M 152.4,47.625 H 133.35"
         id="path624" />
    </g>
    <g
       id="g1225 1U">
      <path
         d="m 9.525,-9.525 h 19.05"
         id="path626" />
      <path
         d="m 9.525,-6.525 h 19.05"
         id="path628" />
      <path
         d="m 9.525,6.525 h 19.05"
         id="path630" />
      <path
         d="M 9.525,9.525 V -9.525"
         id="path632" />
      <path
         d="M 28.575,-9.525 V 9.525"
         id="path634" />
      <path
         d="M 28.575,9.525 H 9.525"
         id="path636" />
    </g>
    <g
       id="g1217 1U">
      <path
         d="m 252.4125,-9.525 h 19.05"
         id="path638" />
      <path
         d="m 252.4125,-6.525 h 19.05"
         id="path640" />
      <path
         d="m 252.4125,6.525 h 19.05"
         id="path642" />
      <path
         d="M 252.4125,9.525 V -9.525"
         id="path644" />
      <path
         d="M 271.4625,-9.525 V 9.525"
         id="path646" />
      <path
         d="m 271.4625,9.525 h -19.05"
         id="path648" />
    </g>
    <g
       id="g1209 1U">
      <path
         d="M 57.15,28.575 H 76.2"
         id="path650" />
      <path
         d="M 57.15,31.575 H 76.2"
         id="path652" />
      <path
         d="M 57.15,44.625 H 76.2"
         id="path654" />
      <path
         d="M 57.15,47.625 V 28.575"
         id="path656" />
      <path
         d="m 76.2,28.575 v 19.05"
         id="path658" />
      <path
         d="M 76.2,47.625 H 57.15"
         id="path660" />
    </g>
    <g
       id="g1200 1U">
      <path
         d="m 90.4875,9.525 h 19.05"
         id="path662" />
      <path
         d="m 90.4875,12.525 h 19.05"
         id="path664" />
      <path
         d="m 90.4875,25.575 h 19.05"
         id="path666" />
      <path
         d="M 90.4875,28.575 V 9.525"
         id="path668" />
      <path
         d="m 109.5375,9.525 v 19.05"
         id="path670" />
      <path
         d="m 109.5375,28.575 h -19.05"
         id="path672" />
    </g>
    <g
       id="g1191 1U">
      <path
         d="m 14.2875,47.625 h 19.05"
         id="path674" />
      <path
         d="m 14.2875,50.625 h 19.05"
         id="path676" />
      <path
         d="m 14.2875,63.675 h 19.05"
         id="path678" />
      <path
         d="M 14.2875,66.675 V 47.625"
         id="path680" />
      <path
         d="m 33.3375,47.625 v 19.05"
         id="path682" />
      <path
         d="m 33.3375,66.675 h -19.05"
         id="path684" />
    </g>
    <g
       id="g1183 1U">
      <path
         d="m 152.4,28.575 h 19.05"
         id="path686" />
      <path
         d="m 152.4,31.575 h 19.05"
         id="path688" />
      <path
         d="m 152.4,44.625 h 19.05"
         id="path690" />
      <path
         d="M 152.4,47.625 V 28.575"
         id="path692" />
      <path
         d="m 171.45,28.575 v 19.05"
         id="path694" />
      <path
         d="M 171.45,47.625 H 152.4"
         id="path696" />
    </g>
    <g
       id="g1175 1U">
      <path
         d="m 71.4375,9.525 h 19.05"
         id="path698" />
      <path
         d="m 71.4375,12.525 h 19.05"
         id="path700" />
      <path
         d="m 71.4375,25.575 h 19.05"
         id="path702" />
      <path
         d="M 71.4375,28.575 V 9.525"
         id="path704" />
      <path
         d="m 90.4875,9.525 v 19.05"
         id="path706" />
      <path
         d="m 90.4875,28.575 h -19.05"
         id="path708" />
    </g>
    <g
       id="g1167 1U">
      <path
         d="m 47.625,-9.525 h 19.05"
         id="path710" />
      <path
         d="m 47.625,-6.525 h 19.05"
         id="path712" />
      <path
         d="m 47.625,6.525 h 19.05"
         id="path714" />
      <path
         d="M 47.625,9.525 V -9.525"
         id="path716" />
      <path
         d="M 66.675,-9.525 V 9.525"
         id="path718" />
      <path
         d="M 66.675,9.525 H 47.625"
         id="path720" />
    </g>
    <g
       id="g1158 1U">
      <path
         d="m 14.2875,9.525 h 19.05"
         id="path722" />
      <path
         d="m 14.2875,12.525 h 19.05"
         id="path724" />
      <path
         d="m 14.2875,25.575 h 19.05"
         id="path726" />
      <path
         d="M 14.2875,28.575 V 9.525"
         id="path728" />
      <path
         d="m 33.3375,9.525 v 19.05"
         id="path730" />
      <path
         d="m 33.3375,28.575 h -19.05"
         id="path732" />
    </g>
    <g
       id="g1150 1U">
      <path
         d="m 85.725,-9.525 h 19.05"
         id="path734" />
      <path
         d="m 85.725,-6.525 h 19.05"
         id="path736" />
      <path
         d="m 85.725,6.525 h 19.05"
         id="path738" />
      <path
         d="M 85.725,9.525 V -9.525"
         id="path740" />
      <path
         d="M 104.775,-9.525 V 9.525"
         id="path742" />
      <path
         d="M 104.775,9.525 H 85.725"
         id="path744" />
    </g>
    <g
       id="g1141 1U">
      <path
         d="m 114.3,28.575 h 19.05"
         id="path746" />
      <path
         d="m 114.3,31.575 h 19.05"
         id="path748" />
      <path
         d="m 114.3,44.625 h 19.05"
         id="path750" />
      <path
         d="M 114.3,47.625 V 28.575"
         id="path752" />
      <path
         d="m 133.35,28.575 v 19.05"
         id="path754" />
      <path
         d="M 133.35,47.625 H 114.3"
         id="path756" />
    </g>
    <g
       id="g1132 1U">
      <path
         d="m 66.675,-9.525 h 19.05"
         id="path758" />
      <path
         d="m 66.675,-6.525 h 19.05"
         id="path760" />
      <path
         d="m 66.675,6.525 h 19.05"
         id="path762" />
      <path
         d="M 66.675,9.525 V -9.525"
         id="path764" />
      <path
         d="M 85.725,-9.525 V 9.525"
         id="path766" />
      <path
         d="M 85.725,9.525 H 66.675"
         id="path768" />
    </g>
    <g
       id="g1123 1U">
      <path
         d="m 195.2625,47.625 h 19.05"
         id="path770" />
      <path
         d="m 195.2625,50.625 h 19.05"
         id="path772" />
      <path
         d="m 195.2625,63.675 h 19.05"
         id="path774" />
      <path
         d="M 195.2625,66.675 V 47.625"
         id="path776" />
      <path
         d="m 214.3125,47.625 v 19.05"
         id="path778" />
      <path
         d="m 214.3125,66.675 h -19.05"
         id="path780" />
    </g>
    <g
       id="g1114 1U">
      <path
         d="M 171.45,28.575 H 190.5"
         id="path782" />
      <path
         d="M 171.45,31.575 H 190.5"
         id="path784" />
      <path
         d="M 171.45,44.625 H 190.5"
         id="path786" />
      <path
         d="M 171.45,47.625 V 28.575"
         id="path788" />
      <path
         d="m 190.5,28.575 v 19.05"
         id="path790" />
      <path
         d="M 190.5,47.625 H 171.45"
         id="path792" />
    </g>
    <g
       id="g1105 1U">
      <path
         d="m 195.2625,9.525 h 19.05"
         id="path794" />
      <path
         d="m 195.2625,12.525 h 19.05"
         id="path796" />
      <path
         d="m 195.2625,25.575 h 19.05"
         id="path798" />
      <path
         d="M 195.2625,28.575 V 9.525"
         id="path800" />
      <path
         d="m 214.3125,9.525 v 19.05"
         id="path802" />
      <path
         d="m 214.3125,28.575 h -19.05"
         id="path804" />
    </g>
    <g
       id="g1096 1U">
      <path
         d="m 123.825,-9.525 h 19.05"
         id="path806" />
      <path
         d="m 123.825,-6.525 h 19.05"
         id="path808" />
      <path
         d="m 123.825,6.525 h 19.05"
         id="path810" />
      <path
         d="M 123.825,9.525 V -9.525"
         id="path812" />
      <path
         d="M 142.875,-9.525 V 9.525"
         id="path814" />
      <path
         d="m 142.875,9.525 h -19.05"
         id="path816" />
    </g>
    <g
       id="g1087 1U">
      <path
         d="m 138.1125,9.525 h 19.05"
         id="path818" />
      <path
         d="m 138.1125,12.525 h 19.05"
         id="path820" />
      <path
         d="m 138.1125,25.575 h 19.05"
         id="path822" />
      <path
         d="M 138.1125,28.575 V 9.525"
         id="path824" />
      <path
         d="m 157.1625,9.525 v 19.05"
         id="path826" />
      <path
         d="m 157.1625,28.575 h -19.05"
         id="path828" />
    </g>
    <g
       id="g1078 merged merged"
       style="display:inline"
       inkscape:label="g1078">
      <path
         d="m 71.4375,50.625 h 19.05"
         id="path832" />
      <path
         d="m 71.4375,63.675 h 19.05"
         id="path834" />
      <path
         d="m 71.4375,47.625 h 19.05 v 19.05 h -19.05 z"
         id="path836"
         sodipodi:nodetypes="ccccc" />
    </g>
    <g
       id="g1070 merged merged"
       style="display:inline"
       inkscape:label="g1070">
      <path
         d="m 200.025,-6.525 h 19.05"
         id="path844"
         sodipodi:nodetypes="cc" />
      <path
         d="m 200.025,6.525 h 19.05"
         id="path846"
         sodipodi:nodetypes="cc" />
      <path
         d="m 200.025,-9.525 h 19.05 v 19.05 h -19.05 z"
         id="path848"
         sodipodi:nodetypes="ccccc" />
    </g>
  </g>
  <metadata
     id="metadata1847">
    <rdf:RDF>
      <cc:Work
         rdf:about="">
        <dc:title>SVG Image created as Cr0wn60-brd.svg date 2023/07/20 01:07:07 </dc:title>
      </cc:Work>
    </rdf:RDF>
  </metadata>
</svg>
