<?xml version="1.0" encoding="UTF-8" standalone="no"?>
<svg
   xmlns:dc="http://purl.org/dc/elements/1.1/"
   xmlns:cc="http://creativecommons.org/ns#"
   xmlns:rdf="http://www.w3.org/1999/02/22-rdf-syntax-ns#"
   xmlns:svg="http://www.w3.org/2000/svg"
   xmlns="http://www.w3.org/2000/svg"
   version="1.1"
   width="30.589998cm"
   height="11.54cm"
   viewBox="0 0 3.0589998e+08 1.1540001e+08"
   id="svg3580">
  <metadata
     id="metadata3586">
    <rdf:RDF>
      <cc:Work
         rdf:about="">
        <dc:format>image/svg+xml</dc:format>
        <dc:type
           rdf:resource="http://purl.org/dc/dcmitype/StillImage" />
        <dc:title>SVG Picture created as Cr0wn60-User_Drawings.svg date 2022/11/23 11:14:24 </dc:title>
      </cc:Work>
    </rdf:RDF>
  </metadata>
  <defs
     id="defs3584" />
  <title
     id="title2">SVG Picture created as Cr0wn60-User_Drawings.svg date 2022/11/23 11:14:24 </title>
  <desc
     id="desc4">Picture generated by PCBNEW </desc>
  <path
     id="path3188"
     style="fill:#000000;fill-opacity:0.46840149;stroke:#000000;stroke-width:100000;stroke-linecap:round;stroke-linejoin:round;stroke-opacity:1"
     d="m 240912500,25600000 h 800000 v -3500000 h -800000 v -5000000 h 800000 v -3500000 h -800000 v -1000000 h -14000000 v 1000000 h -800000 v 3500000 h 800000 v 5000000 h -800000 v 3500000 h 800000 v 1000000 h 14000000 z M 112325000,79250000 v -5000000 h 800000 v -3500000 h -800000 V 69750000 H 98325000 v 1000000 h -800000 v 3500000 h 800000 v 5000000 h -800000 v 3500000 h 800000 v 1000000 h 14000000 v -1000000 h 800000 v -3500000 z m 66675000,-43100000 h 800000 v -3500000 h -800000 v -1000000 h -14000000 v 1000000 h -800000 v 3500000 h 800000 v 5000000 h -800000 v 3500000 h 800000 v 1000000 h 14000000 v -1000000 h 800000 v -3500000 h -800000 z m -28287500,-9550000 h 14000000 v -1000000 h 800000 v -3500000 h -800000 v -5000000 h 800000 v -3500000 h -800000 v -1000000 h -14000000 v 1000000 h -800000 v 3500000 h 800000 v 5000000 h -800000 v 3500000 h 800000 z m -97918750,75200000 h 800000 v -3500000 h -800000 v -5000000 h 800000 v -3500000 h -800000 V 88800000 H 38793750 v 1000000 h -800000 v 3500000 h 800000 v 5000000 h -800000 v 3500000 h 800000 v 1000000 H 52793750 Z M 236150000,36150000 h 800000 v -3500000 h -800000 v -1000000 h -14000000 v 1000000 h -800000 v 3500000 h 800000 v 5000000 h -800000 v 3500000 h 800000 v 1000000 h 14000000 v -1000000 h 800000 v -3500000 h -800000 z m -37812500,24050000 h -800000 v 3500000 h 800000 v 1000000 h 14000000 v -1000000 h 800000 v -3500000 h -800000 v -5000000 h 800000 v -3500000 h -800000 v -1000000 h -14000000 v 1000000 h -800000 v 3500000 h 800000 z m 73818750,19050000 h -800000 v 3500000 h 800000 v 1000000 h 14000000 v -1000000 h 800000 v -3500000 h -800000 v -5000000 h 800000 v -3500000 h -800000 v -1000000 h -14000000 v 1000000 h -800000 v 3500000 h 800000 z m -36006250,-8500000 v -1000000 h -14000000 v 1000000 h -800000 v 3500000 h 800000 v 5000000 h -800000 v 3500000 h 800000 v 1000000 h 14000000 v -1000000 h 800000 v -3500000 h -800000 v -5000000 h 800000 V 70750000 Z M 93562500,17100000 v 5000000 h -800000 v 3500000 h 800000 v 1000000 h 14000000 v -1000000 h 800000 v -3500000 h -800000 v -5000000 h 800000 v -3500000 h -800000 V 12600000 H 93562500 v 1000000 h -800000 v 3500000 z m 47625000,33600000 v 1000000 h -800000 v 3500000 h 800000 v 5000000 h -800000 v 3500000 h 800000 v 1000000 h 14000000 v -1000000 h 800000 v -3500000 h -800000 v -5000000 h 800000 v -3500000 h -800000 v -1000000 z m -121443750,0 v 1000000 h -800000 v 3500000 h 800000 v 5000000 h -800000 v 3500000 h 800000 v 1000000 h 14000000 v -1000000 h 800000 v -3500000 h -800000 v -5000000 h 800000 v -3500000 h -800000 V 50700000 Z M 17362500,31650000 v 1000000 h -800000 v 3500000 h 800000 v 5000000 h -800000 v 3500000 h 800000 v 1000000 h 14000000 v -1000000 h 800000 v -3500000 h -800000 v -5000000 h 800000 v -3500000 h -800000 V 31650000 Z M 126612500,13600000 v -1000000 h -14000000 v 1000000 h -800000 v 3500000 h 800000 v 5000000 h -800000 v 3500000 h 800000 v 1000000 h 14000000 v -1000000 h 800000 v -3500000 h -800000 v -5000000 h 800000 V 13600000 Z M 29781250,74250000 v -3500000 h -800000 V 69750000 H 14981250 v 1000000 h -800000 v 3500000 h 800000 v 5000000 h -800000 v 3500000 h 800000 v 1000000 h 14000000 v -1000000 h 800000 v -3500000 h -800000 V 74250000 Z M 55975000,41150000 h -800000 v -5000000 h 800000 v -3500000 h -800000 V 31650000 H 41175000 v 1000000 h -800000 v 3500000 h 800000 v 5000000 h -800000 v 3500000 h 800000 v 1000000 h 14000000 v -1000000 h 800000 z M 88512500,17100000 h 800000 v -3500000 h -800000 V 12600000 H 74512500 v 1000000 h -800000 v 3500000 h 800000 v 5000000 h -800000 v 3500000 h 800000 v 1000000 h 14000000 v -1000000 h 800000 v -3500000 h -800000 z m 23812500,14550000 H 98325000 v 1000000 h -800000 v 3500000 h 800000 v 5000000 h -800000 v 3500000 h 800000 v 1000000 h 14000000 v -1000000 h 800000 v -3500000 h -800000 v -5000000 h 800000 v -3500000 h -800000 z m 66962500,28550000 h -800000 v 3500000 h 800000 v 1000000 h 14000000 v -1000000 h 800000 v -3500000 h -800000 v -5000000 h 800000 v -3500000 h -800000 v -1000000 h -14000000 v 1000000 h -800000 v 3500000 h 800000 z M 41175000,70750000 h -800000 v 3500000 h 800000 v 5000000 h -800000 v 3500000 h 800000 v 1000000 h 14000000 v -1000000 h 800000 v -3500000 h -800000 v -5000000 h 800000 v -3500000 h -800000 V 69750000 H 41175000 Z m 75400000,-29600000 v 3500000 h 800000 v 1000000 h 14000000 v -1000000 h 800000 v -3500000 h -800000 v -5000000 h 800000 v -3500000 h -800000 v -1000000 h -14000000 v 1000000 h -800000 v 3500000 h 800000 v 5000000 z m 93668750,48650000 h -800000 v 3500000 h 800000 v 5000000 h -800000 v 3500000 h 800000 v 1000000 h 14000000 v -1000000 h 800000 v -3500000 h -800000 v -5000000 h 800000 v -3500000 h -800000 V 88800000 H 210243750 Z M 83237500,60200000 v 3500000 h 800000 v 1000000 h 14000000 v -1000000 h 800000 v -3500000 h -800000 v -5000000 h 800000 v -3500000 h -800000 V 50700000 H 84037500 v 1000000 h -800000 v 3500000 h 800000 v 5000000 z M 278500000,25600000 h 800000 v 1000000 h 14000000 v -1000000 h 800000 v -3500000 h -800000 v -5000000 h 800000 v -3500000 h -800000 v -1000000 h -14000000 v 1000000 h -800000 v 3500000 h 800000 v 5000000 h -800000 z M 50412500,17100000 h 800000 v -3500000 h -800000 V 12600000 H 36412500 v 1000000 h -800000 v 3500000 h 800000 v 5000000 h -800000 v 3500000 h 800000 v 1000000 h 14000000 v -1000000 h 800000 v -3500000 h -800000 z m 109825000,38100000 v 5000000 h -800000 v 3500000 h 800000 v 1000000 h 14000000 v -1000000 h 800000 v -3500000 h -800000 v -5000000 h 800000 v -3500000 h -800000 v -1000000 h -14000000 v 1000000 h -800000 v 3500000 z m -28062500,15550000 h -800000 v -1000000 h -14000000 v 1000000 h -800000 v 3500000 h 800000 v 5000000 h -800000 v 3500000 h 800000 v 1000000 h 14000000 v -1000000 h 800000 v -3500000 h -800000 v -5000000 h 800000 z M 94075000,32650000 h -800000 V 31650000 H 79275000 v 1000000 h -800000 v 3500000 h 800000 v 5000000 h -800000 v 3500000 h 800000 v 1000000 h 14000000 v -1000000 h 800000 v -3500000 h -800000 v -5000000 h 800000 z m 79356250,68575000 h 6650000 v -3125000 h 875000 v -2800000 h -875000 v -6275000 h -1825000 v -1200000 h -3000000 v 1200000 h -1825000 v 800000 h -1575000 v -1025000 h -14000000 v 1025000 h -1575000 v -800000 h -1825000 v -1200000 h -3000000 v 1200000 h -1825000 v 6275000 h -875000 v 2800000 h 875000 v 3125000 h 6650000 v -800000 h 1575000 v 2375000 h 14000000 v -2375000 h 1575000 z m 43156250,-46025000 h 800000 v 5000000 h -800000 v 3500000 h 800000 v 1000000 h 14000000 v -1000000 h 800000 v -3500000 h -800000 v -5000000 h 800000 v -3500000 h -800000 v -1000000 h -14000000 v 1000000 h -800000 z M 184562500,22100000 h -800000 v -5000000 h 800000 v -3500000 h -800000 v -1000000 h -14000000 v 1000000 h -800000 v 3500000 h 800000 v 5000000 h -800000 v 3500000 h 800000 v 1000000 h 14000000 v -1000000 h 800000 z M 59937500,60200000 v -5000000 h 800000 v -3500000 h -800000 V 50700000 H 45937500 v 1000000 h -800000 v 3500000 h 800000 v 5000000 h -800000 v 3500000 h 800000 v 1000000 h 14000000 v -1000000 h 800000 v -3500000 z m 77000000,-8500000 h -800000 v -1000000 h -14000000 v 1000000 h -800000 v 3500000 h 800000 v 5000000 h -800000 v 3500000 h 800000 v 1000000 h 14000000 v -1000000 h 800000 v -3500000 h -800000 v -5000000 h 800000 z M 93275000,70750000 V 69750000 H 79275000 v 1000000 h -800000 v 3500000 h 800000 v 5000000 h -800000 v 3500000 h 800000 v 1000000 h 14000000 v -1000000 h 800000 v -3500000 h -800000 v -5000000 h 800000 v -3500000 z m 155581250,22550000 v -3500000 h -800000 v -1000000 h -14000000 v 1000000 h -800000 v 3500000 h 800000 v 5000000 h -800000 v 3500000 h 800000 v 1000000 h 14000000 v -1000000 h 800000 v -3500000 h -800000 V 93300000 Z M 64987500,63700000 v 1000000 h 14000000 v -1000000 h 800000 v -3500000 h -800000 v -5000000 h 800000 v -3500000 h -800000 V 50700000 H 64987500 v 1000000 h -800000 v 3500000 h 800000 v 5000000 h -800000 v 3500000 z m 194181250,-5500000 v 6275000 h 1825000 v 1200000 h 3000000 v -1200000 h 1825000 v -800000 h 1575000 v 1025000 h 14000000 v -1025000 h 1575000 v 800000 h 1825000 v 1200000 h 3000000 v -1200000 h 1825000 v -6275000 h 875000 v -2800000 h -875000 v -3125000 h -6650000 v 800000 h -1575000 v -2375000 h -14000000 v 2375000 h -1575000 v -800000 h -6650000 v 3125000 h -875000 v 2800000 z M 98037500,89800000 V 88800000 H 84037500 v 1000000 h -800000 v 3500000 h 800000 v 5000000 h -800000 v 3500000 h 800000 v 1000000 h 14000000 v -1000000 h 800000 v -3500000 h -800000 v -5000000 h 800000 v -3500000 z m 85212500,-7050000 h 800000 v 1000000 h 14000000 v -1000000 h 800000 v -3500000 h -800000 v -5000000 h 800000 v -3500000 h -800000 v -1000000 h -14000000 v 1000000 h -800000 v 3500000 h 800000 v 5000000 h -800000 z M 12600000,17100000 v 5000000 h -800000 v 3500000 h 800000 v 1000000 h 14000000 v -1000000 h 800000 v -3500000 h -800000 v -5000000 h 800000 v -3500000 h -800000 V 12600000 H 12600000 v 1000000 h -800000 v 3500000 z m 166400000,65650000 h 800000 v -3500000 h -800000 v -5000000 h 800000 v -3500000 h -800000 v -1000000 h -14000000 v 1000000 h -800000 v 3500000 h 800000 v 5000000 h -800000 v 3500000 h 800000 v 1000000 h 14000000 z m 24100000,-50100000 h -800000 v 3500000 h 800000 v 5000000 h -800000 v 3500000 h 800000 v 1000000 h 14000000 v -1000000 h 800000 v -3500000 h -800000 v -5000000 h 800000 v -3500000 h -800000 v -1000000 h -14000000 z m -5050000,8500000 v -5000000 h 800000 v -3500000 h -800000 v -1000000 h -14000000 v 1000000 h -800000 v 3500000 h 800000 v 5000000 h -800000 v 3500000 h 800000 v 1000000 h 14000000 v -1000000 h 800000 v -3500000 z m 57150000,29600000 v -1000000 h -14000000 v 1000000 h -800000 v 3500000 h 800000 v 5000000 h -800000 v 3500000 h 800000 v 1000000 h 14000000 v -1000000 h 800000 v -3500000 h -800000 v -5000000 h 800000 v -3500000 z m 800000,-29600000 h -800000 v -5000000 h 800000 v -3500000 h -800000 v -1000000 h -14000000 v 1000000 h -800000 v 3500000 h 800000 v 5000000 h -800000 v 3500000 h 800000 v 1000000 h 14000000 v -1000000 h 800000 z M 221862500,25600000 h 800000 v -3500000 h -800000 v -5000000 h 800000 v -3500000 h -800000 v -1000000 h -14000000 v 1000000 h -800000 v 3500000 h 800000 v 5000000 h -800000 v 3500000 h 800000 v 1000000 h 14000000 z m -18762500,44150000 v 1000000 h -800000 v 3500000 h 800000 v 5000000 h -800000 v 3500000 h 800000 v 1000000 h 14000000 v -1000000 h 800000 v -3500000 h -800000 v -5000000 h 800000 v -3500000 h -800000 v -1000000 z m -74106250,33050000 v -2375000 h 1575000 v 800000 h 6650000 v -3125000 h 875000 v -2800000 h -875000 v -6275000 h -1825000 v -1200000 h -3000000 v 1200000 h -1825000 v 800000 h -1575000 v -1025000 h -14000000 v 1025000 h -1575000 v -800000 h -1825000 v -1200000 h -3000000 v 1200000 h -1825000 v 6275000 h -875000 v 2800000 h 875000 v 3125000 h 6650000 v -800000 h 1575000 v 2375000 z m 16156250,-23550000 v 3500000 h 800000 v 1000000 h 14000000 v -1000000 h 800000 v -3500000 h -800000 v -5000000 h 800000 v -3500000 h -800000 v -1000000 h -14000000 v 1000000 h -800000 v 3500000 h 800000 v 5000000 z m 57662500,-57150000 v -5000000 h 800000 v -3500000 h -800000 v -1000000 h -14000000 v 1000000 h -800000 v 3500000 h 800000 v 5000000 h -800000 v 3500000 h 800000 v 1000000 h 14000000 v -1000000 h 800000 v -3500000 z m -14000000,71200000 v 5000000 h -800000 v 3500000 h 800000 v 1000000 h 14000000 v -1000000 h 800000 v -3500000 h -800000 v -5000000 h 800000 v -3500000 h -800000 v -1000000 h -14000000 v 1000000 h -800000 v 3500000 z M 159950000,32650000 v -1000000 h -14000000 v 1000000 h -800000 v 3500000 h 800000 v 5000000 h -800000 v 3500000 h 800000 v 1000000 h 14000000 v -1000000 h 800000 v -3500000 h -800000 v -5000000 h 800000 v -3500000 z m 86012500,-19050000 h -800000 v 3500000 h 800000 v 5000000 h -800000 v 3500000 h 800000 v 1000000 h 14000000 v -1000000 h 800000 v -3500000 h -800000 v -5000000 h 800000 v -3500000 h -800000 V 12600000 H 245962500 Z M 62606250,88800000 v 1000000 h -800000 v 3500000 h 800000 v 5000000 h -800000 v 3500000 h 800000 v 1000000 h 14000000 v -1000000 h 800000 v -3500000 h -800000 v -5000000 h 800000 v -3500000 h -800000 v -1000000 z m -2381250,-5050000 h 14000000 v -1000000 h 800000 v -3500000 h -800000 v -5000000 h 800000 v -3500000 h -800000 V 69750000 H 60225000 v 1000000 h -800000 v 3500000 h 800000 v 5000000 h -800000 v 3500000 h 800000 z M 55462500,25600000 v 1000000 h 14000000 v -1000000 h 800000 v -3500000 h -800000 v -5000000 h 800000 v -3500000 h -800000 V 12600000 H 55462500 v 1000000 h -800000 v 3500000 h 800000 v 5000000 h -800000 v 3500000 z m 46825000,29600000 h 800000 v 5000000 h -800000 v 3500000 h 800000 v 1000000 h 14000000 v -1000000 h 800000 v -3500000 h -800000 v -5000000 h 800000 v -3500000 h -800000 v -1000000 h -14000000 v 1000000 h -800000 z m 148150000,0 h 800000 v -3500000 h -800000 v -1000000 h -14000000 v 1000000 h -800000 v 3500000 h 800000 v 5000000 h -800000 v 3500000 h 800000 v 1000000 h 14000000 v -1000000 h 800000 v -3500000 h -800000 z m 38900000,-10550000 v -3500000 h -800000 v -5000000 h 800000 v -3500000 h -800000 v -1000000 h -14000000 v 1000000 h -800000 v 3500000 h 800000 v 5000000 h -800000 v 3500000 h 800000 v 1000000 h 14000000 V 44650000 Z M 60225000,45650000 h 14000000 v -1000000 h 800000 v -3500000 h -800000 v -5000000 h 800000 v -3500000 h -800000 V 31650000 H 60225000 v 1000000 h -800000 v 3500000 h 800000 v 5000000 h -800000 v 3500000 h 800000 z M 11265625,10075000 h 283368755 l 1190620,1190625 v 73818750 l -1190620,1190625 h -40481250 l -1190630,1190625 v 16668755 l -1190620,1190620 H 35078125 l -1190625,-1190620 V 87465625 L 32696875,86275000 H 11265625 L 10075000,85084375 V 11265625 Z" />
</svg>
