%TF.GenerationSoftware,KiCad,Pcbnew,(7.0.0)*%
%TF.CreationDate,2023-06-17T11:14:13+09:00*%
%TF.ProjectId,Cr0wn60,43723077-6e36-4302-9e6b-696361645f70,rev?*%
%TF.SameCoordinates,Original*%
%TF.FileFunction,Soldermask,Bot*%
%TF.FilePolarity,Negative*%
%FSLAX46Y46*%
G04 Gerber Fmt 4.6, Leading zero omitted, Abs format (unit mm)*
G04 Created by KiCad (PCBNEW (7.0.0)) date 2023-06-17 11:14:13*
%MOMM*%
%LPD*%
G01*
G04 APERTURE LIST*
G04 Aperture macros list*
%AMRoundRect*
0 Rectangle with rounded corners*
0 $1 Rounding radius*
0 $2 $3 $4 $5 $6 $7 $8 $9 X,Y pos of 4 corners*
0 Add a 4 corners polygon primitive as box body*
4,1,4,$2,$3,$4,$5,$6,$7,$8,$9,$2,$3,0*
0 Add four circle primitives for the rounded corners*
1,1,$1+$1,$2,$3*
1,1,$1+$1,$4,$5*
1,1,$1+$1,$6,$7*
1,1,$1+$1,$8,$9*
0 Add four rect primitives between the rounded corners*
20,1,$1+$1,$2,$3,$4,$5,0*
20,1,$1+$1,$4,$5,$6,$7,0*
20,1,$1+$1,$6,$7,$8,$9,0*
20,1,$1+$1,$8,$9,$2,$3,0*%
G04 Aperture macros list end*
%ADD10C,1.700000*%
%ADD11C,4.000000*%
%ADD12C,2.200000*%
%ADD13C,3.048000*%
%ADD14C,3.987800*%
%ADD15RoundRect,0.225000X0.375000X-0.225000X0.375000X0.225000X-0.375000X0.225000X-0.375000X-0.225000X0*%
%ADD16O,3.098000X0.298000*%
%ADD17O,0.298000X3.598000*%
%ADD18R,1.000000X1.700000*%
%ADD19RoundRect,0.225000X0.225000X0.375000X-0.225000X0.375000X-0.225000X-0.375000X0.225000X-0.375000X0*%
%ADD20RoundRect,0.150000X0.650000X0.150000X-0.650000X0.150000X-0.650000X-0.150000X0.650000X-0.150000X0*%
%ADD21O,0.298000X3.098000*%
%ADD22O,3.598000X0.298000*%
%ADD23R,1.700000X1.000000*%
%ADD24RoundRect,0.140000X-0.140000X-0.170000X0.140000X-0.170000X0.140000X0.170000X-0.140000X0.170000X0*%
%ADD25R,2.000000X1.500000*%
%ADD26R,2.000000X3.800000*%
%ADD27RoundRect,0.105000X-0.895000X0.420000X-0.895000X-0.420000X0.895000X-0.420000X0.895000X0.420000X0*%
%ADD28RoundRect,0.135000X-0.135000X-0.185000X0.135000X-0.185000X0.135000X0.185000X-0.135000X0.185000X0*%
%ADD29RoundRect,0.140000X0.170000X-0.140000X0.170000X0.140000X-0.170000X0.140000X-0.170000X-0.140000X0*%
%ADD30RoundRect,0.140000X-0.170000X0.140000X-0.170000X-0.140000X0.170000X-0.140000X0.170000X0.140000X0*%
%ADD31R,1.000000X1.000000*%
%ADD32O,1.000000X1.000000*%
%ADD33RoundRect,0.135000X-0.185000X0.135000X-0.185000X-0.135000X0.185000X-0.135000X0.185000X0.135000X0*%
%ADD34RoundRect,0.150000X0.275000X-0.150000X0.275000X0.150000X-0.275000X0.150000X-0.275000X-0.150000X0*%
%ADD35RoundRect,0.175000X0.225000X-0.175000X0.225000X0.175000X-0.225000X0.175000X-0.225000X-0.175000X0*%
%ADD36RoundRect,0.140000X0.140000X0.170000X-0.140000X0.170000X-0.140000X-0.170000X0.140000X-0.170000X0*%
%ADD37RoundRect,0.050000X0.387500X0.050000X-0.387500X0.050000X-0.387500X-0.050000X0.387500X-0.050000X0*%
%ADD38RoundRect,0.050000X0.050000X0.387500X-0.050000X0.387500X-0.050000X-0.387500X0.050000X-0.387500X0*%
%ADD39R,3.200000X3.200000*%
%ADD40RoundRect,0.225000X-0.375000X0.225000X-0.375000X-0.225000X0.375000X-0.225000X0.375000X0.225000X0*%
%ADD41R,1.200000X1.400000*%
%ADD42RoundRect,0.135000X0.135000X0.185000X-0.135000X0.185000X-0.135000X-0.185000X0.135000X-0.185000X0*%
G04 APERTURE END LIST*
D10*
%TO.C,SW23*%
X37782500Y-19050000D03*
D11*
X42862500Y-19050000D03*
D10*
X47942500Y-19050000D03*
D12*
X39052500Y-16510000D03*
X45402500Y-13970000D03*
%TD*%
D10*
%TO.C,SW37*%
X252095000Y-19050000D03*
D11*
X257175000Y-19050000D03*
D10*
X262255000Y-19050000D03*
D12*
X253365000Y-16510000D03*
X259715000Y-13970000D03*
%TD*%
D10*
%TO.C,SW56*%
X213995000Y-38100000D03*
D11*
X219075000Y-38100000D03*
D10*
X224155000Y-38100000D03*
D12*
X215265000Y-35560000D03*
X221615000Y-33020000D03*
%TD*%
D10*
%TO.C,SW45*%
X80645000Y-38100000D03*
D11*
X85725000Y-38100000D03*
D10*
X90805000Y-38100000D03*
D12*
X81915000Y-35560000D03*
X88265000Y-33020000D03*
%TD*%
D10*
%TO.C,SW3*%
X33020000Y0D03*
D11*
X38100000Y0D03*
D10*
X43180000Y0D03*
D12*
X34290000Y2540000D03*
X40640000Y5080000D03*
%TD*%
D10*
%TO.C,SW57*%
X244951250Y-38100000D03*
D11*
X250031250Y-38100000D03*
D10*
X255111250Y-38100000D03*
D12*
X246221250Y-35560000D03*
X252571250Y-33020000D03*
%TD*%
D10*
%TO.C,SW62*%
X37782500Y-57150000D03*
D11*
X42862500Y-57150000D03*
D10*
X47942500Y-57150000D03*
D12*
X39052500Y-54610000D03*
X45402500Y-52070000D03*
%TD*%
D10*
%TO.C,SW81*%
X40163750Y-76200000D03*
D11*
X45243750Y-76200000D03*
D10*
X50323750Y-76200000D03*
D12*
X41433750Y-73660000D03*
X47783750Y-71120000D03*
%TD*%
D10*
%TO.C,SW16*%
X223520000Y0D03*
D11*
X228600000Y0D03*
D10*
X233680000Y0D03*
D12*
X224790000Y2540000D03*
X231140000Y5080000D03*
%TD*%
D10*
%TO.C,SW30*%
X123507500Y-19050000D03*
D11*
X128587500Y-19050000D03*
D10*
X133667500Y-19050000D03*
D12*
X124777500Y-16510000D03*
X131127500Y-13970000D03*
%TD*%
D10*
%TO.C,SW85*%
X166370000Y-76200000D03*
D11*
X171450000Y-76200000D03*
D10*
X176530000Y-76200000D03*
D12*
X167640000Y-73660000D03*
X173990000Y-71120000D03*
%TD*%
D10*
%TO.C,SW13*%
X166370000Y0D03*
D11*
X171450000Y0D03*
D10*
X176530000Y0D03*
D12*
X167640000Y2540000D03*
X173990000Y5080000D03*
%TD*%
D10*
%TO.C,SW70*%
X123507500Y-57150000D03*
D11*
X128587500Y-57150000D03*
D10*
X133667500Y-57150000D03*
D12*
X124777500Y-54610000D03*
X131127500Y-52070000D03*
%TD*%
D13*
%TO.C,REF\u002A\u002A*%
X109531250Y-83185000D03*
D14*
X109531250Y-67945000D03*
D13*
X85731250Y-83185000D03*
D14*
X85731250Y-67945000D03*
%TD*%
D10*
%TO.C,SW73*%
X180657500Y-57150000D03*
D11*
X185737500Y-57150000D03*
D10*
X190817500Y-57150000D03*
D12*
X181927500Y-54610000D03*
X188277500Y-52070000D03*
%TD*%
D10*
%TO.C,SW14*%
X185420000Y0D03*
D11*
X190500000Y0D03*
D10*
X195580000Y0D03*
D12*
X186690000Y2540000D03*
X193040000Y5080000D03*
%TD*%
D10*
%TO.C,SW36*%
X218757500Y-19050000D03*
D11*
X223837500Y-19050000D03*
D10*
X228917500Y-19050000D03*
D12*
X220027500Y-16510000D03*
X226377500Y-13970000D03*
%TD*%
D10*
%TO.C,SW75*%
X218757500Y-57150000D03*
D11*
X223837500Y-57150000D03*
D10*
X228917500Y-57150000D03*
D12*
X220027500Y-54610000D03*
X226377500Y-52070000D03*
%TD*%
D10*
%TO.C,SW32*%
X161607500Y-19050000D03*
D11*
X166687500Y-19050000D03*
D10*
X171767500Y-19050000D03*
D12*
X162877500Y-16510000D03*
X169227500Y-13970000D03*
%TD*%
D10*
%TO.C,SW34*%
X180657500Y-19050000D03*
D11*
X185737500Y-19050000D03*
D10*
X190817500Y-19050000D03*
D12*
X181927500Y-16510000D03*
X188277500Y-13970000D03*
%TD*%
D10*
%TO.C,SW71*%
X142557500Y-57150000D03*
D11*
X147637500Y-57150000D03*
D10*
X152717500Y-57150000D03*
D12*
X143827500Y-54610000D03*
X150177500Y-52070000D03*
%TD*%
D10*
%TO.C,SW1*%
X-9842500Y0D03*
D11*
X-4762500Y0D03*
D10*
X317500Y0D03*
D12*
X-8572500Y2540000D03*
X-2222500Y5080000D03*
%TD*%
D10*
%TO.C,SW72*%
X161607500Y-57150000D03*
D11*
X166687500Y-57150000D03*
D10*
X171767500Y-57150000D03*
D12*
X162877500Y-54610000D03*
X169227500Y-52070000D03*
%TD*%
D10*
%TO.C,SW82*%
X61595000Y-76200000D03*
D11*
X66675000Y-76200000D03*
D10*
X71755000Y-76200000D03*
D12*
X62865000Y-73660000D03*
X69215000Y-71120000D03*
%TD*%
D13*
%TO.C,REF\u002A\u002A*%
X238131250Y-31115000D03*
D14*
X238131250Y-46355000D03*
D13*
X261931250Y-31115000D03*
D14*
X261931250Y-46355000D03*
%TD*%
D10*
%TO.C,SW42*%
X42545000Y-38100000D03*
D11*
X47625000Y-38100000D03*
D10*
X52705000Y-38100000D03*
D12*
X43815000Y-35560000D03*
X50165000Y-33020000D03*
%TD*%
D10*
%TO.C,SW87*%
X211613750Y-76200000D03*
D11*
X216693750Y-76200000D03*
D10*
X221773750Y-76200000D03*
D12*
X212883750Y-73660000D03*
X219233750Y-71120000D03*
%TD*%
D10*
%TO.C,SW63*%
X56832500Y-57150000D03*
D11*
X61912500Y-57150000D03*
D10*
X66992500Y-57150000D03*
D12*
X58102500Y-54610000D03*
X64452500Y-52070000D03*
%TD*%
D10*
%TO.C,SW46*%
X99695000Y-38100000D03*
D11*
X104775000Y-38100000D03*
D10*
X109855000Y-38100000D03*
D12*
X100965000Y-35560000D03*
X107315000Y-33020000D03*
%TD*%
D10*
%TO.C,SW41*%
X23495000Y-38100000D03*
D11*
X28575000Y-38100000D03*
D10*
X33655000Y-38100000D03*
D12*
X24765000Y-35560000D03*
X31115000Y-33020000D03*
%TD*%
D10*
%TO.C,SW12*%
X147320000Y0D03*
D11*
X152400000Y0D03*
D10*
X157480000Y0D03*
D12*
X148590000Y2540000D03*
X154940000Y5080000D03*
%TD*%
D10*
%TO.C,SW54*%
X194945000Y-38100000D03*
D11*
X200025000Y-38100000D03*
D10*
X205105000Y-38100000D03*
D12*
X196215000Y-35560000D03*
X202565000Y-33020000D03*
%TD*%
D13*
%TO.C,REF\u002A\u002A*%
X152393750Y-83185000D03*
D14*
X152393750Y-67945000D03*
D13*
X128593750Y-83185000D03*
D14*
X128593750Y-67945000D03*
%TD*%
D10*
%TO.C,SW24*%
X56832500Y-19050000D03*
D11*
X61912500Y-19050000D03*
D10*
X66992500Y-19050000D03*
D12*
X58102500Y-16510000D03*
X64452500Y-13970000D03*
%TD*%
D10*
%TO.C,SW65*%
X94932500Y-57150000D03*
D11*
X100012500Y-57150000D03*
D10*
X105092500Y-57150000D03*
D12*
X96202500Y-54610000D03*
X102552500Y-52070000D03*
%TD*%
D10*
%TO.C,SW51*%
X137795000Y-38100000D03*
D11*
X142875000Y-38100000D03*
D10*
X147955000Y-38100000D03*
D12*
X139065000Y-35560000D03*
X145415000Y-33020000D03*
%TD*%
D10*
%TO.C,SW2*%
X13970000Y0D03*
D11*
X19050000Y0D03*
D10*
X24130000Y0D03*
D12*
X15240000Y2540000D03*
X21590000Y5080000D03*
%TD*%
D10*
%TO.C,SW17*%
X256857500Y0D03*
D11*
X261937500Y0D03*
D10*
X267017500Y0D03*
D12*
X258127500Y2540000D03*
X264477500Y5080000D03*
%TD*%
D10*
%TO.C,SW84*%
X135413750Y-76200000D03*
D11*
X140493750Y-76200000D03*
D10*
X145573750Y-76200000D03*
D12*
X136683750Y-73660000D03*
X143033750Y-71120000D03*
%TD*%
D10*
%TO.C,SW43*%
X61595000Y-38100000D03*
D11*
X66675000Y-38100000D03*
D10*
X71755000Y-38100000D03*
D12*
X62865000Y-35560000D03*
X69215000Y-33020000D03*
%TD*%
D10*
%TO.C,SW86*%
X187801250Y-76200000D03*
D11*
X192881250Y-76200000D03*
D10*
X197961250Y-76200000D03*
D12*
X189071250Y-73660000D03*
X195421250Y-71120000D03*
%TD*%
D10*
%TO.C,SW26*%
X94932500Y-19050000D03*
D11*
X100012500Y-19050000D03*
D10*
X105092500Y-19050000D03*
D12*
X96202500Y-16510000D03*
X102552500Y-13970000D03*
%TD*%
D10*
%TO.C,SW61*%
X18732500Y-57150000D03*
D11*
X23812500Y-57150000D03*
D10*
X28892500Y-57150000D03*
D12*
X20002500Y-54610000D03*
X26352500Y-52070000D03*
%TD*%
D10*
%TO.C,SW52*%
X156845000Y-38100000D03*
D11*
X161925000Y-38100000D03*
D10*
X167005000Y-38100000D03*
D12*
X158115000Y-35560000D03*
X164465000Y-33020000D03*
%TD*%
D10*
%TO.C,SW25*%
X75882500Y-19050000D03*
D11*
X80962500Y-19050000D03*
D10*
X86042500Y-19050000D03*
D12*
X77152500Y-16510000D03*
X83502500Y-13970000D03*
%TD*%
D10*
%TO.C,SW4*%
X52070000Y0D03*
D11*
X57150000Y0D03*
D10*
X62230000Y0D03*
D12*
X53340000Y2540000D03*
X59690000Y5080000D03*
%TD*%
D10*
%TO.C,SW21*%
X18732500Y-19050000D03*
D11*
X23812500Y-19050000D03*
D10*
X28892500Y-19050000D03*
D12*
X20002500Y-16510000D03*
X26352500Y-13970000D03*
%TD*%
D10*
%TO.C,SW60*%
X-7461250Y-57150000D03*
D11*
X-2381250Y-57150000D03*
D10*
X2698750Y-57150000D03*
D12*
X-6191250Y-54610000D03*
X158750Y-52070000D03*
%TD*%
D10*
%TO.C,SW6*%
X90170000Y0D03*
D11*
X95250000Y0D03*
D10*
X100330000Y0D03*
D12*
X91440000Y2540000D03*
X97790000Y5080000D03*
%TD*%
D10*
%TO.C,SW20*%
X-5080000Y-19050000D03*
D11*
X0Y-19050000D03*
D10*
X5080000Y-19050000D03*
D12*
X-3810000Y-16510000D03*
X2540000Y-13970000D03*
%TD*%
D10*
%TO.C,SW40*%
X-2698750Y-38100000D03*
D11*
X2381250Y-38100000D03*
D10*
X7461250Y-38100000D03*
D12*
X-1428750Y-35560000D03*
X4921250Y-33020000D03*
%TD*%
D10*
%TO.C,SW50*%
X118745000Y-38100000D03*
D11*
X123825000Y-38100000D03*
D10*
X128905000Y-38100000D03*
D12*
X120015000Y-35560000D03*
X126365000Y-33020000D03*
%TD*%
D10*
%TO.C,SW5*%
X71120000Y0D03*
D11*
X76200000Y0D03*
D10*
X81280000Y0D03*
D12*
X72390000Y2540000D03*
X78740000Y5080000D03*
%TD*%
D10*
%TO.C,SW74*%
X199707500Y-57150000D03*
D11*
X204787500Y-57150000D03*
D10*
X209867500Y-57150000D03*
D12*
X200977500Y-54610000D03*
X207327500Y-52070000D03*
%TD*%
D10*
%TO.C,SW76*%
X249713750Y-57150000D03*
D11*
X254793750Y-57150000D03*
D10*
X259873750Y-57150000D03*
D12*
X250983750Y-54610000D03*
X257333750Y-52070000D03*
%TD*%
D10*
%TO.C,SW53*%
X175895000Y-38100000D03*
D11*
X180975000Y-38100000D03*
D10*
X186055000Y-38100000D03*
D12*
X177165000Y-35560000D03*
X183515000Y-33020000D03*
%TD*%
D10*
%TO.C,SW35*%
X199707500Y-19050000D03*
D11*
X204787500Y-19050000D03*
D10*
X209867500Y-19050000D03*
D12*
X200977500Y-16510000D03*
X207327500Y-13970000D03*
%TD*%
D10*
%TO.C,SW80*%
X16351250Y-76200000D03*
D11*
X21431250Y-76200000D03*
D10*
X26511250Y-76200000D03*
D12*
X17621250Y-73660000D03*
X23971250Y-71120000D03*
%TD*%
D10*
%TO.C,SW83*%
X92551250Y-76200000D03*
D11*
X97631250Y-76200000D03*
D10*
X102711250Y-76200000D03*
D12*
X93821250Y-73660000D03*
X100171250Y-71120000D03*
%TD*%
D10*
%TO.C,SW10*%
X128270000Y0D03*
D11*
X133350000Y0D03*
D10*
X138430000Y0D03*
D12*
X129540000Y2540000D03*
X135890000Y5080000D03*
%TD*%
D10*
%TO.C,SW31*%
X142557500Y-19050000D03*
D11*
X147637500Y-19050000D03*
D10*
X152717500Y-19050000D03*
D12*
X143827500Y-16510000D03*
X150177500Y-13970000D03*
%TD*%
D10*
%TO.C,SW64*%
X75882500Y-57150000D03*
D11*
X80962500Y-57150000D03*
D10*
X86042500Y-57150000D03*
D12*
X77152500Y-54610000D03*
X83502500Y-52070000D03*
%TD*%
D10*
%TO.C,SW15*%
X204470000Y0D03*
D11*
X209550000Y0D03*
D10*
X214630000Y0D03*
D12*
X205740000Y2540000D03*
X212090000Y5080000D03*
%TD*%
D15*
%TO.C,DK30*%
X123507499Y-25780000D03*
X123507499Y-22480000D03*
%TD*%
D16*
%TO.C,LED11*%
X269081249Y-14746874D03*
D17*
X267681249Y-13096874D03*
X270481249Y-13096874D03*
D16*
X269081249Y-11446874D03*
D18*
X269781249Y-15846874D03*
X268381249Y-15846874D03*
X268381249Y-10346874D03*
X269781249Y-10346874D03*
%TD*%
D15*
%TO.C,DK5*%
X71120000Y-6730000D03*
X71120000Y-3430000D03*
%TD*%
%TO.C,DK32*%
X161607500Y-25780000D03*
X161607500Y-22480000D03*
%TD*%
D19*
%TO.C,DR7*%
X246760000Y-50800000D03*
X243460000Y-50800000D03*
%TD*%
D15*
%TO.C,DK84*%
X135413750Y-82930000D03*
X135413750Y-79630000D03*
%TD*%
%TO.C,DK60*%
X-7461250Y-63880000D03*
X-7461250Y-60580000D03*
%TD*%
%TO.C,DK87*%
X211613749Y-82930000D03*
X211613749Y-79630000D03*
%TD*%
%TO.C,DK71*%
X142557500Y-63880000D03*
X142557500Y-60580000D03*
%TD*%
%TO.C,DK17*%
X256857500Y-6730000D03*
X256857500Y-3430000D03*
%TD*%
%TO.C,DK34*%
X180657500Y-25780000D03*
X180657500Y-22480000D03*
%TD*%
%TO.C,DK51*%
X137795000Y-44830000D03*
X137795000Y-41530000D03*
%TD*%
%TO.C,DK75*%
X218757500Y-63880000D03*
X218757500Y-60580000D03*
%TD*%
%TO.C,DK20*%
X-5080000Y-25780000D03*
X-5080000Y-22480000D03*
%TD*%
%TO.C,DK81*%
X40163750Y-82930000D03*
X40163750Y-79630000D03*
%TD*%
D20*
%TO.C,U2*%
X124250000Y-5969000D03*
X124250000Y-7239000D03*
X124250000Y-8509000D03*
X124250000Y-9779000D03*
X117050000Y-9779000D03*
X117050000Y-8509000D03*
X117050000Y-7239000D03*
X117050000Y-5969000D03*
%TD*%
D15*
%TO.C,DK54*%
X194945000Y-44830000D03*
X194945000Y-41530000D03*
%TD*%
%TO.C,DK76*%
X249713750Y-63880000D03*
X249713750Y-60580000D03*
%TD*%
%TO.C,DK2*%
X13970000Y-6730000D03*
X13970000Y-3430000D03*
%TD*%
%TO.C,DK31*%
X142557500Y-25780000D03*
X142557500Y-22480000D03*
%TD*%
D21*
%TO.C,LED2*%
X49274999Y7143749D03*
D22*
X47624999Y5743749D03*
X47624999Y8543749D03*
D21*
X45974999Y7143749D03*
D23*
X50374999Y7843749D03*
X50374999Y6443749D03*
X44874999Y6443749D03*
X44874999Y7843749D03*
%TD*%
D21*
%TO.C,LED3*%
X8793749Y7143749D03*
D22*
X7143749Y5743749D03*
X7143749Y8543749D03*
D21*
X5493749Y7143749D03*
D23*
X9893749Y7843749D03*
X9893749Y6443749D03*
X4393749Y6443749D03*
X4393749Y7843749D03*
%TD*%
D24*
%TO.C,C1*%
X119662000Y-19050000D03*
X120622000Y-19050000D03*
%TD*%
D15*
%TO.C,DK63*%
X56832500Y-63880000D03*
X56832500Y-60580000D03*
%TD*%
%TO.C,DK57*%
X244951250Y-44830000D03*
X244951250Y-41530000D03*
%TD*%
D21*
%TO.C,LED12*%
X251681249Y7143749D03*
D22*
X250031249Y5743749D03*
X250031249Y8543749D03*
D21*
X248381249Y7143749D03*
D23*
X252781249Y7843749D03*
X252781249Y6443749D03*
X247281249Y6443749D03*
X247281249Y7843749D03*
%TD*%
D25*
%TO.C,U1*%
X110083999Y-3541999D03*
X110083999Y-5841999D03*
D26*
X103783999Y-5841999D03*
D25*
X110083999Y-8141999D03*
%TD*%
D21*
%TO.C,LED13*%
X220724999Y7143749D03*
D22*
X219074999Y5743749D03*
X219074999Y8543749D03*
D21*
X217424999Y7143749D03*
D23*
X221824999Y7843749D03*
X221824999Y6443749D03*
X216324999Y6443749D03*
X216324999Y7843749D03*
%TD*%
D21*
%TO.C,LED7*%
X117412499Y-83343749D03*
D22*
X119062499Y-81943749D03*
X119062499Y-84743749D03*
D21*
X120712499Y-83343749D03*
D23*
X116312499Y-84043749D03*
X116312499Y-82643749D03*
X121812499Y-82643749D03*
X121812499Y-84043749D03*
%TD*%
D15*
%TO.C,DK46*%
X99695000Y-44830000D03*
X99695000Y-41530000D03*
%TD*%
D27*
%TO.C,SWR1*%
X123190000Y3749000D03*
X123190000Y-701000D03*
%TD*%
D19*
%TO.C,DR0*%
X101472000Y2540000D03*
X98172000Y2540000D03*
%TD*%
D15*
%TO.C,DK3*%
X33020000Y-6730000D03*
X33020000Y-3430000D03*
%TD*%
D19*
%TO.C,DR2*%
X22478000Y-12700000D03*
X19178000Y-12700000D03*
%TD*%
D28*
%TO.C,R3*%
X121918000Y-4318000D03*
X122938000Y-4318000D03*
%TD*%
D15*
%TO.C,DK85*%
X166370000Y-82930000D03*
X166370000Y-79630000D03*
%TD*%
%TO.C,DK82*%
X61595000Y-82930000D03*
X61595000Y-79630000D03*
%TD*%
%TO.C,DK26*%
X94932500Y-25780000D03*
X94932500Y-22480000D03*
%TD*%
%TO.C,DK21*%
X18732500Y-25780000D03*
X18732500Y-22480000D03*
%TD*%
%TO.C,DK14*%
X185420000Y-6730000D03*
X185420000Y-3430000D03*
%TD*%
D29*
%TO.C,C10*%
X112014000Y-5052000D03*
X112014000Y-4092000D03*
%TD*%
%TO.C,C4*%
X114046000Y-13688000D03*
X114046000Y-12728000D03*
%TD*%
D27*
%TO.C,SWR0*%
X105410000Y3749000D03*
X105410000Y-701000D03*
%TD*%
D21*
%TO.C,LED14*%
X182624999Y7143749D03*
D22*
X180974999Y5743749D03*
X180974999Y8543749D03*
D21*
X179324999Y7143749D03*
D23*
X183724999Y7843749D03*
X183724999Y6443749D03*
X178224999Y6443749D03*
X178224999Y7843749D03*
%TD*%
D21*
%TO.C,LED8*%
X180515624Y-83343749D03*
D22*
X182165624Y-81943749D03*
X182165624Y-84743749D03*
D21*
X183815624Y-83343749D03*
D23*
X179415624Y-84043749D03*
X179415624Y-82643749D03*
X184915624Y-82643749D03*
X184915624Y-84043749D03*
%TD*%
D16*
%TO.C,LED5*%
X-11906249Y-42403124D03*
D17*
X-10506249Y-44053124D03*
X-13306249Y-44053124D03*
D16*
X-11906249Y-45703124D03*
D18*
X-12606249Y-41303124D03*
X-11206249Y-41303124D03*
X-11206249Y-46803124D03*
X-12606249Y-46803124D03*
%TD*%
D19*
%TO.C,DR5*%
X208406000Y-31750000D03*
X205106000Y-31750000D03*
%TD*%
D15*
%TO.C,DK12*%
X147320000Y-6730000D03*
X147320000Y-3430000D03*
%TD*%
D24*
%TO.C,C11*%
X117376000Y-4318000D03*
X118336000Y-4318000D03*
%TD*%
D19*
%TO.C,DR8*%
X124078000Y-69850000D03*
X120778000Y-69850000D03*
%TD*%
D15*
%TO.C,DK52*%
X156845000Y-44830000D03*
X156845000Y-41530000D03*
%TD*%
%TO.C,DK62*%
X37782500Y-63880000D03*
X37782500Y-60580000D03*
%TD*%
D30*
%TO.C,C8*%
X110300000Y-24666000D03*
X110300000Y-25626000D03*
%TD*%
D19*
%TO.C,DR1*%
X143382000Y3810000D03*
X140082000Y3810000D03*
%TD*%
D31*
%TO.C,J2*%
X111226999Y-48650999D03*
D32*
X111226999Y-49920999D03*
%TD*%
D21*
%TO.C,LED1*%
X87374999Y7143749D03*
D22*
X85724999Y5743749D03*
X85724999Y8543749D03*
D21*
X84074999Y7143749D03*
D23*
X88474999Y7843749D03*
X88474999Y6443749D03*
X82974999Y6443749D03*
X82974999Y7843749D03*
%TD*%
D24*
%TO.C,C12*%
X115090000Y-23700000D03*
X116050000Y-23700000D03*
%TD*%
D15*
%TO.C,DK65*%
X94932500Y-63880000D03*
X94932500Y-60580000D03*
%TD*%
%TO.C,DK74*%
X199707500Y-63880000D03*
X199707500Y-60580000D03*
%TD*%
D21*
%TO.C,LED9*%
X234093749Y-64293749D03*
D22*
X235743749Y-62893749D03*
X235743749Y-65693749D03*
D21*
X237393749Y-64293749D03*
D23*
X232993749Y-64993749D03*
X232993749Y-63593749D03*
X238493749Y-63593749D03*
X238493749Y-64993749D03*
%TD*%
D30*
%TO.C,C13*%
X112776000Y-26698000D03*
X112776000Y-27658000D03*
%TD*%
D29*
%TO.C,C6*%
X111252000Y-13688000D03*
X111252000Y-12728000D03*
%TD*%
D15*
%TO.C,DK41*%
X23495000Y-44830000D03*
X23495000Y-41530000D03*
%TD*%
D30*
%TO.C,C2*%
X111760000Y-24666000D03*
X111760000Y-25626000D03*
%TD*%
D15*
%TO.C,DK64*%
X75882500Y-63880000D03*
X75882500Y-60580000D03*
%TD*%
%TO.C,DK35*%
X199707500Y-25780000D03*
X199707500Y-22480000D03*
%TD*%
D19*
%TO.C,DR3*%
X176148000Y-12700000D03*
X172848000Y-12700000D03*
%TD*%
D15*
%TO.C,DK10*%
X128269999Y-6730000D03*
X128269999Y-3430000D03*
%TD*%
%TO.C,DK56*%
X213995000Y-44830000D03*
X213995000Y-41530000D03*
%TD*%
D16*
%TO.C,LED10*%
X269081249Y-45703124D03*
D17*
X267681249Y-44053124D03*
X270481249Y-44053124D03*
D16*
X269081249Y-42403124D03*
D18*
X269781249Y-46803124D03*
X268381249Y-46803124D03*
X268381249Y-41303124D03*
X269781249Y-41303124D03*
%TD*%
D15*
%TO.C,DK6*%
X90170000Y-6730000D03*
X90170000Y-3430000D03*
%TD*%
%TO.C,DK43*%
X61595000Y-44830000D03*
X61595000Y-41530000D03*
%TD*%
%TO.C,DK61*%
X18732500Y-63880000D03*
X18732500Y-60580000D03*
%TD*%
D19*
%TO.C,DR6*%
X99186000Y-50800000D03*
X95886000Y-50800000D03*
%TD*%
D15*
%TO.C,DK42*%
X42545000Y-44830000D03*
X42545000Y-41530000D03*
%TD*%
D33*
%TO.C,R4*%
X123952000Y-3300000D03*
X123952000Y-4320000D03*
%TD*%
D15*
%TO.C,DK16*%
X223520000Y-6730000D03*
X223520000Y-3430000D03*
%TD*%
%TO.C,DK80*%
X16351250Y-82930000D03*
X16351250Y-79630000D03*
%TD*%
%TO.C,DK1*%
X-9842500Y-6730000D03*
X-9842500Y-3430000D03*
%TD*%
D21*
%TO.C,LED6*%
X54309374Y-83343749D03*
D22*
X55959374Y-81943749D03*
X55959374Y-84743749D03*
D21*
X57609374Y-83343749D03*
D23*
X53209374Y-84043749D03*
X53209374Y-82643749D03*
X58709374Y-82643749D03*
X58709374Y-84043749D03*
%TD*%
D19*
%TO.C,DR4*%
X65150000Y-31750000D03*
X61850000Y-31750000D03*
%TD*%
D15*
%TO.C,DK45*%
X80645000Y-44830000D03*
X80645000Y-41530000D03*
%TD*%
D29*
%TO.C,C5*%
X112268000Y-13688000D03*
X112268000Y-12728000D03*
%TD*%
D28*
%TO.C,R2*%
X106106500Y-11303000D03*
X107126500Y-11303000D03*
%TD*%
D21*
%TO.C,LED15*%
X126665624Y7143749D03*
D22*
X125015624Y5743749D03*
X125015624Y8543749D03*
D21*
X123365624Y7143749D03*
D23*
X127765624Y7843749D03*
X127765624Y6443749D03*
X122265624Y6443749D03*
X122265624Y7843749D03*
%TD*%
D34*
%TO.C,J1*%
X93868750Y-13706250D03*
X93868750Y-12506250D03*
X93868750Y-11306250D03*
X93868750Y-10106250D03*
D35*
X90093750Y-14856250D03*
X90093750Y-8956250D03*
%TD*%
D36*
%TO.C,C3*%
X109446000Y-16510000D03*
X108486000Y-16510000D03*
%TD*%
D15*
%TO.C,DK72*%
X161607500Y-63880000D03*
X161607500Y-60580000D03*
%TD*%
D16*
%TO.C,LED4*%
X-11906249Y-11446874D03*
D17*
X-10506249Y-13096874D03*
X-13306249Y-13096874D03*
D16*
X-11906249Y-14746874D03*
D18*
X-12606249Y-10346874D03*
X-11206249Y-10346874D03*
X-11206249Y-15846874D03*
X-12606249Y-15846874D03*
%TD*%
D15*
%TO.C,DK53*%
X175895000Y-44830000D03*
X175895000Y-41530000D03*
%TD*%
D37*
%TO.C,U3*%
X117737500Y-16450000D03*
X117737500Y-16850000D03*
X117737500Y-17250000D03*
X117737500Y-17650000D03*
X117737500Y-18050000D03*
X117737500Y-18450000D03*
X117737500Y-18850000D03*
X117737500Y-19250000D03*
X117737500Y-19650000D03*
X117737500Y-20050000D03*
X117737500Y-20450000D03*
X117737500Y-20850000D03*
X117737500Y-21250000D03*
X117737500Y-21650000D03*
D38*
X116900000Y-22487500D03*
X116500000Y-22487500D03*
X116100000Y-22487500D03*
X115700000Y-22487500D03*
X115300000Y-22487500D03*
X114900000Y-22487500D03*
X114500000Y-22487500D03*
X114100000Y-22487500D03*
X113700000Y-22487500D03*
X113300000Y-22487500D03*
X112900000Y-22487500D03*
X112500000Y-22487500D03*
X112100000Y-22487500D03*
X111700000Y-22487500D03*
D37*
X110862500Y-21650000D03*
X110862500Y-21250000D03*
X110862500Y-20850000D03*
X110862500Y-20450000D03*
X110862500Y-20050000D03*
X110862500Y-19650000D03*
X110862500Y-19250000D03*
X110862500Y-18850000D03*
X110862500Y-18450000D03*
X110862500Y-18050000D03*
X110862500Y-17650000D03*
X110862500Y-17250000D03*
X110862500Y-16850000D03*
X110862500Y-16450000D03*
D38*
X111700000Y-15612500D03*
X112100000Y-15612500D03*
X112500000Y-15612500D03*
X112900000Y-15612500D03*
X113300000Y-15612500D03*
X113700000Y-15612500D03*
X114100000Y-15612500D03*
X114500000Y-15612500D03*
X114900000Y-15612500D03*
X115300000Y-15612500D03*
X115700000Y-15612500D03*
X116100000Y-15612500D03*
X116500000Y-15612500D03*
X116900000Y-15612500D03*
D39*
X114299999Y-19049999D03*
%TD*%
D15*
%TO.C,DK13*%
X166370000Y-6730000D03*
X166370000Y-3430000D03*
%TD*%
D29*
%TO.C,C9*%
X112014000Y-7592000D03*
X112014000Y-6632000D03*
%TD*%
D15*
%TO.C,DK4*%
X52070000Y-6730000D03*
X52070000Y-3430000D03*
%TD*%
%TO.C,DK73*%
X180657500Y-63880000D03*
X180657500Y-60580000D03*
%TD*%
%TO.C,DK23*%
X37782500Y-25780000D03*
X37782500Y-22480000D03*
%TD*%
%TO.C,DK25*%
X75882500Y-25780000D03*
X75882500Y-22480000D03*
%TD*%
%TO.C,DK86*%
X187801250Y-82930000D03*
X187801250Y-79630000D03*
%TD*%
D29*
%TO.C,C7*%
X115300000Y-13688000D03*
X115300000Y-12728000D03*
%TD*%
D40*
%TO.C,D1*%
X108966000Y3428000D03*
X108966000Y128000D03*
%TD*%
D15*
%TO.C,DK70*%
X123507499Y-63880000D03*
X123507499Y-60580000D03*
%TD*%
D41*
%TO.C,Y1*%
X114211999Y-25315999D03*
X115911999Y-27515999D03*
X115911999Y-25315999D03*
X114211999Y-27515999D03*
%TD*%
D15*
%TO.C,DK36*%
X218757500Y-25780000D03*
X218757500Y-22480000D03*
%TD*%
D42*
%TO.C,R1*%
X107126500Y-10160000D03*
X106106500Y-10160000D03*
%TD*%
D15*
%TO.C,DK24*%
X56832500Y-25780000D03*
X56832500Y-22480000D03*
%TD*%
%TO.C,DK50*%
X118745000Y-44830000D03*
X118745000Y-41530000D03*
%TD*%
%TO.C,DK15*%
X204470000Y-6730000D03*
X204470000Y-3430000D03*
%TD*%
%TO.C,DK37*%
X252095000Y-25780000D03*
X252095000Y-22480000D03*
%TD*%
%TO.C,DK40*%
X-2698750Y-44830000D03*
X-2698750Y-41530000D03*
%TD*%
D33*
%TO.C,R5*%
X112776000Y-24636000D03*
X112776000Y-25656000D03*
%TD*%
D15*
%TO.C,DK83*%
X92551250Y-82930000D03*
X92551250Y-79630000D03*
%TD*%
M02*
