%TF.GenerationSoftware,KiCad,Pcbnew,(7.0.0)*%
%TF.CreationDate,2023-06-17T11:14:13+09:00*%
%TF.ProjectId,Cr0wn60,43723077-6e36-4302-9e6b-696361645f70,rev?*%
%TF.SameCoordinates,Original*%
%TF.FileFunction,Soldermask,Top*%
%TF.FilePolarity,Negative*%
%FSLAX46Y46*%
G04 Gerber Fmt 4.6, Leading zero omitted, Abs format (unit mm)*
G04 Created by KiCad (PCBNEW (7.0.0)) date 2023-06-17 11:14:13*
%MOMM*%
%LPD*%
G01*
G04 APERTURE LIST*
%ADD10C,1.700000*%
%ADD11C,4.000000*%
%ADD12C,2.200000*%
%ADD13C,3.048000*%
%ADD14C,3.987800*%
%ADD15O,3.098000X0.298000*%
%ADD16O,0.298000X3.598000*%
%ADD17O,0.298000X3.098000*%
%ADD18O,3.598000X0.298000*%
%ADD19R,1.000000X1.000000*%
%ADD20O,1.000000X1.000000*%
G04 APERTURE END LIST*
D10*
%TO.C,SW23*%
X37782500Y-19050000D03*
D11*
X42862500Y-19050000D03*
D10*
X47942500Y-19050000D03*
D12*
X39052500Y-16510000D03*
X45402500Y-13970000D03*
%TD*%
D10*
%TO.C,SW37*%
X252095000Y-19050000D03*
D11*
X257175000Y-19050000D03*
D10*
X262255000Y-19050000D03*
D12*
X253365000Y-16510000D03*
X259715000Y-13970000D03*
%TD*%
D10*
%TO.C,SW56*%
X213995000Y-38100000D03*
D11*
X219075000Y-38100000D03*
D10*
X224155000Y-38100000D03*
D12*
X215265000Y-35560000D03*
X221615000Y-33020000D03*
%TD*%
D10*
%TO.C,SW45*%
X80645000Y-38100000D03*
D11*
X85725000Y-38100000D03*
D10*
X90805000Y-38100000D03*
D12*
X81915000Y-35560000D03*
X88265000Y-33020000D03*
%TD*%
D10*
%TO.C,SW3*%
X33020000Y0D03*
D11*
X38100000Y0D03*
D10*
X43180000Y0D03*
D12*
X34290000Y2540000D03*
X40640000Y5080000D03*
%TD*%
D10*
%TO.C,SW57*%
X244951250Y-38100000D03*
D11*
X250031250Y-38100000D03*
D10*
X255111250Y-38100000D03*
D12*
X246221250Y-35560000D03*
X252571250Y-33020000D03*
%TD*%
D10*
%TO.C,SW62*%
X37782500Y-57150000D03*
D11*
X42862500Y-57150000D03*
D10*
X47942500Y-57150000D03*
D12*
X39052500Y-54610000D03*
X45402500Y-52070000D03*
%TD*%
D10*
%TO.C,SW81*%
X40163750Y-76200000D03*
D11*
X45243750Y-76200000D03*
D10*
X50323750Y-76200000D03*
D12*
X41433750Y-73660000D03*
X47783750Y-71120000D03*
%TD*%
D10*
%TO.C,SW16*%
X223520000Y0D03*
D11*
X228600000Y0D03*
D10*
X233680000Y0D03*
D12*
X224790000Y2540000D03*
X231140000Y5080000D03*
%TD*%
D10*
%TO.C,SW30*%
X123507500Y-19050000D03*
D11*
X128587500Y-19050000D03*
D10*
X133667500Y-19050000D03*
D12*
X124777500Y-16510000D03*
X131127500Y-13970000D03*
%TD*%
D10*
%TO.C,SW85*%
X166370000Y-76200000D03*
D11*
X171450000Y-76200000D03*
D10*
X176530000Y-76200000D03*
D12*
X167640000Y-73660000D03*
X173990000Y-71120000D03*
%TD*%
D10*
%TO.C,SW13*%
X166370000Y0D03*
D11*
X171450000Y0D03*
D10*
X176530000Y0D03*
D12*
X167640000Y2540000D03*
X173990000Y5080000D03*
%TD*%
D10*
%TO.C,SW70*%
X123507500Y-57150000D03*
D11*
X128587500Y-57150000D03*
D10*
X133667500Y-57150000D03*
D12*
X124777500Y-54610000D03*
X131127500Y-52070000D03*
%TD*%
D13*
%TO.C,REF\u002A\u002A*%
X109531250Y-83185000D03*
D14*
X109531250Y-67945000D03*
D13*
X85731250Y-83185000D03*
D14*
X85731250Y-67945000D03*
%TD*%
D10*
%TO.C,SW73*%
X180657500Y-57150000D03*
D11*
X185737500Y-57150000D03*
D10*
X190817500Y-57150000D03*
D12*
X181927500Y-54610000D03*
X188277500Y-52070000D03*
%TD*%
D10*
%TO.C,SW14*%
X185420000Y0D03*
D11*
X190500000Y0D03*
D10*
X195580000Y0D03*
D12*
X186690000Y2540000D03*
X193040000Y5080000D03*
%TD*%
D10*
%TO.C,SW36*%
X218757500Y-19050000D03*
D11*
X223837500Y-19050000D03*
D10*
X228917500Y-19050000D03*
D12*
X220027500Y-16510000D03*
X226377500Y-13970000D03*
%TD*%
D10*
%TO.C,SW75*%
X218757500Y-57150000D03*
D11*
X223837500Y-57150000D03*
D10*
X228917500Y-57150000D03*
D12*
X220027500Y-54610000D03*
X226377500Y-52070000D03*
%TD*%
D10*
%TO.C,SW32*%
X161607500Y-19050000D03*
D11*
X166687500Y-19050000D03*
D10*
X171767500Y-19050000D03*
D12*
X162877500Y-16510000D03*
X169227500Y-13970000D03*
%TD*%
D10*
%TO.C,SW34*%
X180657500Y-19050000D03*
D11*
X185737500Y-19050000D03*
D10*
X190817500Y-19050000D03*
D12*
X181927500Y-16510000D03*
X188277500Y-13970000D03*
%TD*%
D10*
%TO.C,SW71*%
X142557500Y-57150000D03*
D11*
X147637500Y-57150000D03*
D10*
X152717500Y-57150000D03*
D12*
X143827500Y-54610000D03*
X150177500Y-52070000D03*
%TD*%
D10*
%TO.C,SW1*%
X-9842500Y0D03*
D11*
X-4762500Y0D03*
D10*
X317500Y0D03*
D12*
X-8572500Y2540000D03*
X-2222500Y5080000D03*
%TD*%
D10*
%TO.C,SW72*%
X161607500Y-57150000D03*
D11*
X166687500Y-57150000D03*
D10*
X171767500Y-57150000D03*
D12*
X162877500Y-54610000D03*
X169227500Y-52070000D03*
%TD*%
D10*
%TO.C,SW82*%
X61595000Y-76200000D03*
D11*
X66675000Y-76200000D03*
D10*
X71755000Y-76200000D03*
D12*
X62865000Y-73660000D03*
X69215000Y-71120000D03*
%TD*%
D13*
%TO.C,REF\u002A\u002A*%
X238131250Y-31115000D03*
D14*
X238131250Y-46355000D03*
D13*
X261931250Y-31115000D03*
D14*
X261931250Y-46355000D03*
%TD*%
D10*
%TO.C,SW42*%
X42545000Y-38100000D03*
D11*
X47625000Y-38100000D03*
D10*
X52705000Y-38100000D03*
D12*
X43815000Y-35560000D03*
X50165000Y-33020000D03*
%TD*%
D10*
%TO.C,SW87*%
X211613750Y-76200000D03*
D11*
X216693750Y-76200000D03*
D10*
X221773750Y-76200000D03*
D12*
X212883750Y-73660000D03*
X219233750Y-71120000D03*
%TD*%
D10*
%TO.C,SW63*%
X56832500Y-57150000D03*
D11*
X61912500Y-57150000D03*
D10*
X66992500Y-57150000D03*
D12*
X58102500Y-54610000D03*
X64452500Y-52070000D03*
%TD*%
D10*
%TO.C,SW46*%
X99695000Y-38100000D03*
D11*
X104775000Y-38100000D03*
D10*
X109855000Y-38100000D03*
D12*
X100965000Y-35560000D03*
X107315000Y-33020000D03*
%TD*%
D10*
%TO.C,SW41*%
X23495000Y-38100000D03*
D11*
X28575000Y-38100000D03*
D10*
X33655000Y-38100000D03*
D12*
X24765000Y-35560000D03*
X31115000Y-33020000D03*
%TD*%
D10*
%TO.C,SW12*%
X147320000Y0D03*
D11*
X152400000Y0D03*
D10*
X157480000Y0D03*
D12*
X148590000Y2540000D03*
X154940000Y5080000D03*
%TD*%
D10*
%TO.C,SW54*%
X194945000Y-38100000D03*
D11*
X200025000Y-38100000D03*
D10*
X205105000Y-38100000D03*
D12*
X196215000Y-35560000D03*
X202565000Y-33020000D03*
%TD*%
D13*
%TO.C,REF\u002A\u002A*%
X152393750Y-83185000D03*
D14*
X152393750Y-67945000D03*
D13*
X128593750Y-83185000D03*
D14*
X128593750Y-67945000D03*
%TD*%
D10*
%TO.C,SW24*%
X56832500Y-19050000D03*
D11*
X61912500Y-19050000D03*
D10*
X66992500Y-19050000D03*
D12*
X58102500Y-16510000D03*
X64452500Y-13970000D03*
%TD*%
D10*
%TO.C,SW65*%
X94932500Y-57150000D03*
D11*
X100012500Y-57150000D03*
D10*
X105092500Y-57150000D03*
D12*
X96202500Y-54610000D03*
X102552500Y-52070000D03*
%TD*%
D10*
%TO.C,SW51*%
X137795000Y-38100000D03*
D11*
X142875000Y-38100000D03*
D10*
X147955000Y-38100000D03*
D12*
X139065000Y-35560000D03*
X145415000Y-33020000D03*
%TD*%
D10*
%TO.C,SW2*%
X13970000Y0D03*
D11*
X19050000Y0D03*
D10*
X24130000Y0D03*
D12*
X15240000Y2540000D03*
X21590000Y5080000D03*
%TD*%
D10*
%TO.C,SW17*%
X256857500Y0D03*
D11*
X261937500Y0D03*
D10*
X267017500Y0D03*
D12*
X258127500Y2540000D03*
X264477500Y5080000D03*
%TD*%
D10*
%TO.C,SW84*%
X135413750Y-76200000D03*
D11*
X140493750Y-76200000D03*
D10*
X145573750Y-76200000D03*
D12*
X136683750Y-73660000D03*
X143033750Y-71120000D03*
%TD*%
D10*
%TO.C,SW43*%
X61595000Y-38100000D03*
D11*
X66675000Y-38100000D03*
D10*
X71755000Y-38100000D03*
D12*
X62865000Y-35560000D03*
X69215000Y-33020000D03*
%TD*%
D10*
%TO.C,SW86*%
X187801250Y-76200000D03*
D11*
X192881250Y-76200000D03*
D10*
X197961250Y-76200000D03*
D12*
X189071250Y-73660000D03*
X195421250Y-71120000D03*
%TD*%
D10*
%TO.C,SW26*%
X94932500Y-19050000D03*
D11*
X100012500Y-19050000D03*
D10*
X105092500Y-19050000D03*
D12*
X96202500Y-16510000D03*
X102552500Y-13970000D03*
%TD*%
D10*
%TO.C,SW61*%
X18732500Y-57150000D03*
D11*
X23812500Y-57150000D03*
D10*
X28892500Y-57150000D03*
D12*
X20002500Y-54610000D03*
X26352500Y-52070000D03*
%TD*%
D10*
%TO.C,SW52*%
X156845000Y-38100000D03*
D11*
X161925000Y-38100000D03*
D10*
X167005000Y-38100000D03*
D12*
X158115000Y-35560000D03*
X164465000Y-33020000D03*
%TD*%
D10*
%TO.C,SW25*%
X75882500Y-19050000D03*
D11*
X80962500Y-19050000D03*
D10*
X86042500Y-19050000D03*
D12*
X77152500Y-16510000D03*
X83502500Y-13970000D03*
%TD*%
D10*
%TO.C,SW4*%
X52070000Y0D03*
D11*
X57150000Y0D03*
D10*
X62230000Y0D03*
D12*
X53340000Y2540000D03*
X59690000Y5080000D03*
%TD*%
D10*
%TO.C,SW21*%
X18732500Y-19050000D03*
D11*
X23812500Y-19050000D03*
D10*
X28892500Y-19050000D03*
D12*
X20002500Y-16510000D03*
X26352500Y-13970000D03*
%TD*%
D10*
%TO.C,SW60*%
X-7461250Y-57150000D03*
D11*
X-2381250Y-57150000D03*
D10*
X2698750Y-57150000D03*
D12*
X-6191250Y-54610000D03*
X158750Y-52070000D03*
%TD*%
D10*
%TO.C,SW6*%
X90170000Y0D03*
D11*
X95250000Y0D03*
D10*
X100330000Y0D03*
D12*
X91440000Y2540000D03*
X97790000Y5080000D03*
%TD*%
D10*
%TO.C,SW20*%
X-5080000Y-19050000D03*
D11*
X0Y-19050000D03*
D10*
X5080000Y-19050000D03*
D12*
X-3810000Y-16510000D03*
X2540000Y-13970000D03*
%TD*%
D10*
%TO.C,SW40*%
X-2698750Y-38100000D03*
D11*
X2381250Y-38100000D03*
D10*
X7461250Y-38100000D03*
D12*
X-1428750Y-35560000D03*
X4921250Y-33020000D03*
%TD*%
D10*
%TO.C,SW50*%
X118745000Y-38100000D03*
D11*
X123825000Y-38100000D03*
D10*
X128905000Y-38100000D03*
D12*
X120015000Y-35560000D03*
X126365000Y-33020000D03*
%TD*%
D10*
%TO.C,SW5*%
X71120000Y0D03*
D11*
X76200000Y0D03*
D10*
X81280000Y0D03*
D12*
X72390000Y2540000D03*
X78740000Y5080000D03*
%TD*%
D10*
%TO.C,SW74*%
X199707500Y-57150000D03*
D11*
X204787500Y-57150000D03*
D10*
X209867500Y-57150000D03*
D12*
X200977500Y-54610000D03*
X207327500Y-52070000D03*
%TD*%
D10*
%TO.C,SW76*%
X249713750Y-57150000D03*
D11*
X254793750Y-57150000D03*
D10*
X259873750Y-57150000D03*
D12*
X250983750Y-54610000D03*
X257333750Y-52070000D03*
%TD*%
D10*
%TO.C,SW53*%
X175895000Y-38100000D03*
D11*
X180975000Y-38100000D03*
D10*
X186055000Y-38100000D03*
D12*
X177165000Y-35560000D03*
X183515000Y-33020000D03*
%TD*%
D10*
%TO.C,SW35*%
X199707500Y-19050000D03*
D11*
X204787500Y-19050000D03*
D10*
X209867500Y-19050000D03*
D12*
X200977500Y-16510000D03*
X207327500Y-13970000D03*
%TD*%
D10*
%TO.C,SW80*%
X16351250Y-76200000D03*
D11*
X21431250Y-76200000D03*
D10*
X26511250Y-76200000D03*
D12*
X17621250Y-73660000D03*
X23971250Y-71120000D03*
%TD*%
D10*
%TO.C,SW83*%
X92551250Y-76200000D03*
D11*
X97631250Y-76200000D03*
D10*
X102711250Y-76200000D03*
D12*
X93821250Y-73660000D03*
X100171250Y-71120000D03*
%TD*%
D10*
%TO.C,SW10*%
X128270000Y0D03*
D11*
X133350000Y0D03*
D10*
X138430000Y0D03*
D12*
X129540000Y2540000D03*
X135890000Y5080000D03*
%TD*%
D10*
%TO.C,SW31*%
X142557500Y-19050000D03*
D11*
X147637500Y-19050000D03*
D10*
X152717500Y-19050000D03*
D12*
X143827500Y-16510000D03*
X150177500Y-13970000D03*
%TD*%
D10*
%TO.C,SW64*%
X75882500Y-57150000D03*
D11*
X80962500Y-57150000D03*
D10*
X86042500Y-57150000D03*
D12*
X77152500Y-54610000D03*
X83502500Y-52070000D03*
%TD*%
D10*
%TO.C,SW15*%
X204470000Y0D03*
D11*
X209550000Y0D03*
D10*
X214630000Y0D03*
D12*
X205740000Y2540000D03*
X212090000Y5080000D03*
%TD*%
D15*
%TO.C,LED11*%
X269081249Y-14746874D03*
D16*
X267681249Y-13096874D03*
X270481249Y-13096874D03*
D15*
X269081249Y-11446874D03*
%TD*%
D17*
%TO.C,LED2*%
X49274999Y7143749D03*
D18*
X47624999Y5743749D03*
X47624999Y8543749D03*
D17*
X45974999Y7143749D03*
%TD*%
%TO.C,LED3*%
X8793749Y7143749D03*
D18*
X7143749Y5743749D03*
X7143749Y8543749D03*
D17*
X5493749Y7143749D03*
%TD*%
%TO.C,LED12*%
X251681249Y7143749D03*
D18*
X250031249Y5743749D03*
X250031249Y8543749D03*
D17*
X248381249Y7143749D03*
%TD*%
%TO.C,LED13*%
X220724999Y7143749D03*
D18*
X219074999Y5743749D03*
X219074999Y8543749D03*
D17*
X217424999Y7143749D03*
%TD*%
%TO.C,LED7*%
X117412499Y-83343749D03*
D18*
X119062499Y-81943749D03*
X119062499Y-84743749D03*
D17*
X120712499Y-83343749D03*
%TD*%
%TO.C,LED14*%
X182624999Y7143749D03*
D18*
X180974999Y5743749D03*
X180974999Y8543749D03*
D17*
X179324999Y7143749D03*
%TD*%
%TO.C,LED8*%
X180515624Y-83343749D03*
D18*
X182165624Y-81943749D03*
X182165624Y-84743749D03*
D17*
X183815624Y-83343749D03*
%TD*%
D15*
%TO.C,LED5*%
X-11906249Y-42403124D03*
D16*
X-10506249Y-44053124D03*
X-13306249Y-44053124D03*
D15*
X-11906249Y-45703124D03*
%TD*%
D19*
%TO.C,J2*%
X111226999Y-48650999D03*
D20*
X111226999Y-49920999D03*
%TD*%
D17*
%TO.C,LED1*%
X87374999Y7143749D03*
D18*
X85724999Y5743749D03*
X85724999Y8543749D03*
D17*
X84074999Y7143749D03*
%TD*%
%TO.C,LED9*%
X234093749Y-64293749D03*
D18*
X235743749Y-62893749D03*
X235743749Y-65693749D03*
D17*
X237393749Y-64293749D03*
%TD*%
D15*
%TO.C,LED10*%
X269081249Y-45703124D03*
D16*
X267681249Y-44053124D03*
X270481249Y-44053124D03*
D15*
X269081249Y-42403124D03*
%TD*%
D17*
%TO.C,LED6*%
X54309374Y-83343749D03*
D18*
X55959374Y-81943749D03*
X55959374Y-84743749D03*
D17*
X57609374Y-83343749D03*
%TD*%
%TO.C,LED15*%
X126665624Y7143749D03*
D18*
X125015624Y5743749D03*
X125015624Y8543749D03*
D17*
X123365624Y7143749D03*
%TD*%
D15*
%TO.C,LED4*%
X-11906249Y-11446874D03*
D16*
X-10506249Y-13096874D03*
X-13306249Y-13096874D03*
D15*
X-11906249Y-14746874D03*
%TD*%
M02*
