M48
; DRILL file {KiCad (7.0.0)} date Sat Jun 17 11:14:13 2023
; FORMAT={-:-/ absolute / inch / decimal}
; #@! TF.CreationDate,2023-06-17T11:14:13+09:00
; #@! TF.GenerationSoftware,Kicad,Pcbnew,(7.0.0)
; #@! TF.FileFunction,NonPlated,1,2,NPTH
FMAT,2
INCH
; #@! TA.AperFunction,NonPlated,NPTH,ComponentDrill
T1C0.0118
; #@! TA.AperFunction,NonPlated,NPTH,ComponentDrill
T2C0.0669
; #@! TA.AperFunction,NonPlated,NPTH,ComponentDrill
T3C0.1200
; #@! TA.AperFunction,NonPlated,NPTH,ComponentDrill
T4C0.1570
; #@! TA.AperFunction,NonPlated,NPTH,ComponentDrill
T5C0.1575
%
G90
G05
T2
X-0.3875Y0.0
X-0.2938Y-2.25
X-0.2Y-0.75
X-0.1062Y-1.5
X0.0125Y0.0
X0.1062Y-2.25
X0.2Y-0.75
X0.2938Y-1.5
X0.55Y0.0
X0.6437Y-3.0
X0.7375Y-0.75
X0.7375Y-2.25
X0.925Y-1.5
X0.95Y0.0
X1.0437Y-3.0
X1.1375Y-0.75
X1.1375Y-2.25
X1.3Y0.0
X1.325Y-1.5
X1.4875Y-0.75
X1.4875Y-2.25
X1.5813Y-3.0
X1.675Y-1.5
X1.7Y0.0
X1.8875Y-0.75
X1.8875Y-2.25
X1.9812Y-3.0
X2.05Y0.0
X2.075Y-1.5
X2.2375Y-0.75
X2.2375Y-2.25
X2.425Y-1.5
X2.425Y-3.0
X2.45Y0.0
X2.6375Y-0.75
X2.6375Y-2.25
X2.8Y0.0
X2.825Y-1.5
X2.825Y-3.0
X2.9875Y-0.75
X2.9875Y-2.25
X3.175Y-1.5
X3.2Y0.0
X3.3875Y-0.75
X3.3875Y-2.25
X3.55Y0.0
X3.575Y-1.5
X3.6437Y-3.0
X3.7375Y-0.75
X3.7375Y-2.25
X3.925Y-1.5
X3.95Y0.0
X4.0438Y-3.0
X4.1375Y-0.75
X4.1375Y-2.25
X4.325Y-1.5
X4.675Y-1.5
X4.8625Y-0.75
X4.8625Y-2.25
X5.05Y0.0
X5.075Y-1.5
X5.2625Y-0.75
X5.2625Y-2.25
X5.3312Y-3.0
X5.425Y-1.5
X5.45Y0.0
X5.6125Y-0.75
X5.6125Y-2.25
X5.7313Y-3.0
X5.8Y0.0
X5.825Y-1.5
X6.0125Y-0.75
X6.0125Y-2.25
X6.175Y-1.5
X6.2Y0.0
X6.3625Y-0.75
X6.3625Y-2.25
X6.55Y0.0
X6.55Y-3.0
X6.575Y-1.5
X6.7625Y-0.75
X6.7625Y-2.25
X6.925Y-1.5
X6.95Y0.0
X6.95Y-3.0
X7.1125Y-0.75
X7.1125Y-2.25
X7.3Y0.0
X7.325Y-1.5
X7.3937Y-3.0
X7.5125Y-0.75
X7.5125Y-2.25
X7.675Y-1.5
X7.7Y0.0
X7.7938Y-3.0
X7.8625Y-0.75
X7.8625Y-2.25
X8.05Y0.0
X8.075Y-1.5
X8.2625Y-0.75
X8.2625Y-2.25
X8.3312Y-3.0
X8.425Y-1.5
X8.45Y0.0
X8.6125Y-0.75
X8.6125Y-2.25
X8.7312Y-3.0
X8.8Y0.0
X8.825Y-1.5
X9.0125Y-0.75
X9.0125Y-2.25
X9.2Y0.0
X9.6437Y-1.5
X9.8312Y-2.25
X9.925Y-0.75
X10.0437Y-1.5
X10.1125Y0.0
X10.2312Y-2.25
X10.325Y-0.75
X10.5125Y0.0
T3
X3.3752Y-3.275
X4.3123Y-3.275
X5.0627Y-3.275
X5.9998Y-3.275
X9.3752Y-1.225
X10.3123Y-1.225
T4
X3.3752Y-2.675
X4.3123Y-2.675
X5.0627Y-2.675
X5.9998Y-2.675
X9.3752Y-1.825
X10.3123Y-1.825
T5
X-0.1875Y0.0
X-0.0938Y-2.25
X0.0Y-0.75
X0.0938Y-1.5
X0.75Y0.0
X0.8438Y-3.0
X0.9375Y-0.75
X0.9375Y-2.25
X1.125Y-1.5
X1.5Y0.0
X1.6875Y-0.75
X1.6875Y-2.25
X1.7812Y-3.0
X1.875Y-1.5
X2.25Y0.0
X2.4375Y-0.75
X2.4375Y-2.25
X2.625Y-1.5
X2.625Y-3.0
X3.0Y0.0
X3.1875Y-0.75
X3.1875Y-2.25
X3.375Y-1.5
X3.75Y0.0
X3.8438Y-3.0
X3.9375Y-0.75
X3.9375Y-2.25
X4.125Y-1.5
X4.875Y-1.5
X5.0625Y-0.75
X5.0625Y-2.25
X5.25Y0.0
X5.5312Y-3.0
X5.625Y-1.5
X5.8125Y-0.75
X5.8125Y-2.25
X6.0Y0.0
X6.375Y-1.5
X6.5625Y-0.75
X6.5625Y-2.25
X6.75Y0.0
X6.75Y-3.0
X7.125Y-1.5
X7.3125Y-0.75
X7.3125Y-2.25
X7.5Y0.0
X7.5938Y-3.0
X7.875Y-1.5
X8.0625Y-0.75
X8.0625Y-2.25
X8.25Y0.0
X8.5312Y-3.0
X8.625Y-1.5
X8.8125Y-0.75
X8.8125Y-2.25
X9.0Y0.0
X9.8438Y-1.5
X10.0312Y-2.25
X10.125Y-0.75
X10.3125Y0.0
T1
G00X-0.5239Y-0.4507
M15
G01X-0.5239Y-0.5806
M16
G05
G00X-0.5239Y-1.6694
M15
G01X-0.5239Y-1.7993
M16
G05
G00X-0.4136Y-0.4507
M15
G01X-0.5239Y-0.4507
M16
G05
G00X-0.4136Y-0.5806
M15
G01X-0.5239Y-0.5806
M16
G05
G00X-0.4136Y-1.6694
M15
G01X-0.5239Y-1.6694
M16
G05
G00X-0.4136Y-1.7993
M15
G01X-0.5239Y-1.7993
M16
G05
G00X-0.4136Y-0.4507
M15
G01X-0.4136Y-0.5806
M16
G05
G00X-0.4136Y-1.6694
M15
G01X-0.4136Y-1.7993
M16
G05
G00X0.2163Y0.2261
M15
G01X0.2163Y0.3364
M16
G05
G00X0.3462Y0.3364
M15
G01X0.2163Y0.3364
M16
G05
G00X0.3462Y0.2261
M15
G01X0.2163Y0.2261
M16
G05
G00X0.3462Y0.2261
M15
G01X0.3462Y0.3364
M16
G05
G00X1.81Y0.2261
M15
G01X1.81Y0.3364
M16
G05
G00X1.94Y0.3364
M15
G01X1.81Y0.3364
M16
G05
G00X1.94Y0.2261
M15
G01X1.81Y0.2261
M16
G05
G00X1.94Y0.2261
M15
G01X1.94Y0.3364
M16
G05
G00X2.1382Y-3.2261
M15
G01X2.1382Y-3.3364
M16
G05
G00X2.1382Y-3.2261
M15
G01X2.2681Y-3.2261
M16
G05
G00X2.1382Y-3.3364
M15
G01X2.2681Y-3.3364
M16
G05
G00X2.2681Y-3.2261
M15
G01X2.2681Y-3.3364
M16
G05
G00X3.31Y0.2261
M15
G01X3.31Y0.3364
M16
G05
G00X3.44Y0.3364
M15
G01X3.31Y0.3364
M16
G05
G00X3.44Y0.2261
M15
G01X3.31Y0.2261
M16
G05
G00X3.44Y0.2261
M15
G01X3.44Y0.3364
M16
G05
G00X4.6225Y-3.2261
M15
G01X4.6225Y-3.3364
M16
G05
G00X4.6225Y-3.2261
M15
G01X4.7525Y-3.2261
M16
G05
G00X4.6225Y-3.3364
M15
G01X4.7525Y-3.3364
M16
G05
G00X4.7525Y-3.2261
M15
G01X4.7525Y-3.3364
M16
G05
G00X4.8569Y0.2261
M15
G01X4.8569Y0.3364
M16
G05
G00X4.9868Y0.3364
M15
G01X4.8569Y0.3364
M16
G05
G00X4.9868Y0.2261
M15
G01X4.8569Y0.2261
M16
G05
G00X4.9868Y0.2261
M15
G01X4.9868Y0.3364
M16
G05
G00X7.06Y0.2261
M15
G01X7.06Y0.3364
M16
G05
G00X7.1069Y-3.2261
M15
G01X7.1069Y-3.3364
M16
G05
G00X7.19Y0.3364
M15
G01X7.06Y0.3364
M16
G05
G00X7.19Y0.2261
M15
G01X7.06Y0.2261
M16
G05
G00X7.1069Y-3.2261
M15
G01X7.2368Y-3.2261
M16
G05
G00X7.1069Y-3.3364
M15
G01X7.2368Y-3.3364
M16
G05
G00X7.19Y0.2261
M15
G01X7.19Y0.3364
M16
G05
G00X7.2368Y-3.2261
M15
G01X7.2368Y-3.3364
M16
G05
G00X8.56Y0.2261
M15
G01X8.56Y0.3364
M16
G05
G00X8.69Y0.3364
M15
G01X8.56Y0.3364
M16
G05
G00X8.69Y0.2261
M15
G01X8.56Y0.2261
M16
G05
G00X8.69Y0.2261
M15
G01X8.69Y0.3364
M16
G05
G00X9.2163Y-2.4761
M15
G01X9.2163Y-2.5864
M16
G05
G00X9.2163Y-2.4761
M15
G01X9.3462Y-2.4761
M16
G05
G00X9.2163Y-2.5864
M15
G01X9.3462Y-2.5864
M16
G05
G00X9.3462Y-2.4761
M15
G01X9.3462Y-2.5864
M16
G05
G00X9.7788Y0.2261
M15
G01X9.7788Y0.3364
M16
G05
G00X9.9087Y0.3364
M15
G01X9.7788Y0.3364
M16
G05
G00X9.9087Y0.2261
M15
G01X9.7788Y0.2261
M16
G05
G00X9.9087Y0.2261
M15
G01X9.9087Y0.3364
M16
G05
G00X10.5386Y-0.5806
M15
G01X10.5386Y-0.4507
M16
G05
G00X10.5386Y-1.7993
M15
G01X10.5386Y-1.6694
M16
G05
G00X10.5386Y-0.4507
M15
G01X10.6489Y-0.4507
M16
G05
G00X10.5386Y-0.5806
M15
G01X10.6489Y-0.5806
M16
G05
G00X10.5386Y-1.6694
M15
G01X10.6489Y-1.6694
M16
G05
G00X10.5386Y-1.7993
M15
G01X10.6489Y-1.7993
M16
G05
G00X10.6489Y-0.5806
M15
G01X10.6489Y-0.4507
M16
G05
G00X10.6489Y-1.7993
M15
G01X10.6489Y-1.6694
M16
G05
T0
M30
