M48
; DRILL file {KiCad (7.0.0)} date Sat Jun 17 11:14:13 2023
; FORMAT={-:-/ absolute / inch / decimal}
; #@! TF.CreationDate,2023-06-17T11:14:13+09:00
; #@! TF.GenerationSoftware,Kicad,Pcbnew,(7.0.0)
; #@! TF.FileFunction,Plated,1,2,PTH
FMAT,2
INCH
; #@! TA.AperFunction,Plated,PTH,ViaDrill
T1C0.0118
; #@! TA.AperFunction,Plated,PTH,ViaDrill
T2C0.0157
; #@! TA.AperFunction,Plated,PTH,ComponentDrill
T3C0.0276
; #@! TA.AperFunction,Plated,PTH,ComponentDrill
T4C0.0591
%
G90
G05
T1
X4.15Y0.15
X4.29Y-0.605
X4.3Y-1.01
X4.34Y-0.13
X4.345Y-0.91
X4.4Y-1.08
X4.41Y-0.24
X4.42Y-0.85
X4.43Y-0.66
X4.45Y-0.8506
X4.5104Y-0.5704
X4.6Y-0.93
X4.69Y-0.17
X4.75Y-0.78
X4.835Y-0.385
X6.53Y-2.64
X6.54Y-2.67
X7.025Y-3.15
X7.6725Y-2.6375
X8.22Y-2.64
X8.275Y-2.645
T2
X-0.4225Y-0.655
X-0.4225Y-1.875
X-0.345Y-2.515
X-0.335Y-0.265
X-0.245Y-1.015
X-0.155Y-1.765
X-0.05Y0.11
X0.1425Y0.235
X0.36Y0.09
X0.595Y-3.265
X0.615Y-0.265
X0.68Y-1.015
X0.68Y-2.515
X0.75Y-0.4
X0.875Y-1.765
X1.245Y-0.265
X1.425Y-2.515
X1.425Y-1.015
X1.535Y-3.265
X1.615Y-1.765
X1.7375Y0.235
X1.985Y-0.265
X2.175Y-1.015
X2.175Y-2.515
X2.3125Y-3.235
X2.365Y-1.765
X2.37Y-2.765
X2.37Y-3.24
X2.37Y-2.71
X2.39Y-1.2
X2.735Y-0.265
X2.925Y-1.015
X2.925Y-2.515
X2.955Y-3.11
X3.115Y-1.765
X3.2375Y0.235
X3.265Y-2.75
X3.485Y-0.265
X3.5475Y-0.38
X3.5475Y-0.56
X3.575Y-3.225
X3.675Y-2.515
X3.675Y-1.015
X3.6956Y-0.3745
X3.775Y-1.945
X3.855Y-1.765
X4.15Y-0.07
X4.1732Y-1.1181
X4.22Y-0.87
X4.2638Y-1.1181
X4.3976Y-0.4646
X4.4173Y-2.6929
X4.455Y-0.705
X4.455Y-0.795
X4.49Y-0.47
X4.5Y-0.75
X4.5404Y-0.4777
X4.545Y-0.705
X4.545Y-0.795
X4.56Y-2.65
X4.59Y-2.76
X4.615Y-1.765
X4.63Y-0.96
X4.75Y-1.07
X4.77Y-0.84
X4.7825Y0.235
X4.805Y-1.015
X4.805Y-2.515
X4.8225Y-0.1
X4.8275Y-3.235
X4.84Y-0.67
X4.85Y0.15
X4.92Y0.03
X4.9225Y-0.115
X4.95Y0.19
X4.97Y-0.07
X4.97Y-0.23
X5.005Y-0.265
X5.0875Y-0.19
X5.0875Y-0.34
X5.275Y-3.265
X5.365Y-1.765
X5.41Y-3.13
X5.515Y0.105
X5.555Y-0.255
X5.555Y-1.015
X5.555Y-2.515
X5.85Y-0.265
X6.115Y-1.765
X6.305Y-1.015
X6.305Y-2.515
X6.465Y-3.11
X6.485Y-0.265
X6.495Y-3.265
X6.77Y-0.41
X6.865Y-1.085
X6.865Y-1.765
X6.98Y-1.88
X6.9875Y0.235
X7.045Y-2.515
X7.045Y-1.015
X7.235Y-0.265
X7.3125Y-3.235
X7.615Y-1.765
X7.795Y-2.515
X7.795Y-1.015
X7.9501Y-1.17
X7.985Y-0.265
X8.2Y-3.23
X8.275Y-3.265
X8.28Y-1.86
X8.365Y-1.765
X8.4875Y0.235
X8.545Y-1.015
X8.545Y-2.515
X8.735Y-0.265
X8.9625Y-2.45
X9.15Y-2.4
X9.4225Y-2.485
X9.585Y-1.765
X9.7075Y0.235
X9.855Y-1.015
X10.045Y-0.265
X10.5475Y-0.38
X10.5475Y-1.595
T3
X4.379Y-1.9154
X4.379Y-1.9654
T4
X-0.3375Y0.1
X-0.2437Y-2.15
X-0.15Y-0.65
X-0.0875Y0.2
X-0.0563Y-1.4
X0.0062Y-2.05
X0.1Y-0.55
X0.1938Y-1.3
X0.6Y0.1
X0.6937Y-2.9
X0.7875Y-0.65
X0.7875Y-2.15
X0.85Y0.2
X0.9437Y-2.8
X0.975Y-1.4
X1.0375Y-0.55
X1.0375Y-2.05
X1.225Y-1.3
X1.35Y0.1
X1.5375Y-0.65
X1.5375Y-2.15
X1.6Y0.2
X1.6312Y-2.9
X1.725Y-1.4
X1.7875Y-0.55
X1.7875Y-2.05
X1.8812Y-2.8
X1.975Y-1.3
X2.1Y0.1
X2.2875Y-0.65
X2.2875Y-2.15
X2.35Y0.2
X2.475Y-1.4
X2.475Y-2.9
X2.5375Y-0.55
X2.5375Y-2.05
X2.725Y-1.3
X2.725Y-2.8
X2.85Y0.1
X3.0375Y-0.65
X3.0375Y-2.15
X3.1Y0.2
X3.225Y-1.4
X3.2875Y-0.55
X3.2875Y-2.05
X3.475Y-1.3
X3.6Y0.1
X3.6938Y-2.9
X3.7875Y-0.65
X3.7875Y-2.15
X3.85Y0.2
X3.9438Y-2.8
X3.975Y-1.4
X4.0375Y-0.55
X4.0375Y-2.05
X4.225Y-1.3
X4.725Y-1.4
X4.9125Y-0.65
X4.9125Y-2.15
X4.975Y-1.3
X5.1Y0.1
X5.1625Y-0.55
X5.1625Y-2.05
X5.35Y0.2
X5.3812Y-2.9
X5.475Y-1.4
X5.6312Y-2.8
X5.6625Y-0.65
X5.6625Y-2.15
X5.725Y-1.3
X5.85Y0.1
X5.9125Y-0.55
X5.9125Y-2.05
X6.1Y0.2
X6.225Y-1.4
X6.4125Y-0.65
X6.4125Y-2.15
X6.475Y-1.3
X6.6Y0.1
X6.6Y-2.9
X6.6625Y-0.55
X6.6625Y-2.05
X6.85Y0.2
X6.85Y-2.8
X6.975Y-1.4
X7.1625Y-0.65
X7.1625Y-2.15
X7.225Y-1.3
X7.35Y0.1
X7.4125Y-0.55
X7.4125Y-2.05
X7.4437Y-2.9
X7.6Y0.2
X7.6937Y-2.8
X7.725Y-1.4
X7.9125Y-0.65
X7.9125Y-2.15
X7.975Y-1.3
X8.1Y0.1
X8.1625Y-0.55
X8.1625Y-2.05
X8.35Y0.2
X8.3812Y-2.9
X8.475Y-1.4
X8.6312Y-2.8
X8.6625Y-0.65
X8.6625Y-2.15
X8.725Y-1.3
X8.85Y0.1
X8.9125Y-0.55
X8.9125Y-2.05
X9.1Y0.2
X9.6937Y-1.4
X9.8812Y-2.15
X9.9437Y-1.3
X9.975Y-0.65
X10.1312Y-2.05
X10.1625Y0.1
X10.225Y-0.55
X10.4125Y0.2
T0
M30
