%TF.GenerationSoftware,KiCad,Pcbnew,(7.0.0)*%
%TF.CreationDate,2023-06-17T11:14:13+09:00*%
%TF.ProjectId,Cr0wn60,43723077-6e36-4302-9e6b-696361645f70,rev?*%
%TF.SameCoordinates,Original*%
%TF.FileFunction,Legend,Top*%
%TF.FilePolarity,Positive*%
%FSLAX46Y46*%
G04 Gerber Fmt 4.6, Leading zero omitted, Abs format (unit mm)*
G04 Created by KiCad (PCBNEW (7.0.0)) date 2023-06-17 11:14:13*
%MOMM*%
%LPD*%
G01*
G04 APERTURE LIST*
%ADD10C,0.150000*%
%ADD11C,0.900000*%
%ADD12C,1.700000*%
%ADD13C,4.000000*%
%ADD14C,2.200000*%
%ADD15C,3.048000*%
%ADD16C,3.987800*%
%ADD17O,3.098000X0.298000*%
%ADD18O,0.298000X3.598000*%
%ADD19O,0.298000X3.098000*%
%ADD20O,3.598000X0.298000*%
%ADD21R,1.000000X1.000000*%
%ADD22O,1.000000X1.000000*%
G04 APERTURE END LIST*
D10*
%TO.C,LED11*%
X266654630Y-14692113D02*
X266654630Y-15168303D01*
X266654630Y-15168303D02*
X265654630Y-15168303D01*
X266130821Y-14358779D02*
X266130821Y-14025446D01*
X266654630Y-13882589D02*
X266654630Y-14358779D01*
X266654630Y-14358779D02*
X265654630Y-14358779D01*
X265654630Y-14358779D02*
X265654630Y-13882589D01*
X266654630Y-13454017D02*
X265654630Y-13454017D01*
X265654630Y-13454017D02*
X265654630Y-13215922D01*
X265654630Y-13215922D02*
X265702250Y-13073065D01*
X265702250Y-13073065D02*
X265797488Y-12977827D01*
X265797488Y-12977827D02*
X265892726Y-12930208D01*
X265892726Y-12930208D02*
X266083202Y-12882589D01*
X266083202Y-12882589D02*
X266226059Y-12882589D01*
X266226059Y-12882589D02*
X266416535Y-12930208D01*
X266416535Y-12930208D02*
X266511773Y-12977827D01*
X266511773Y-12977827D02*
X266607011Y-13073065D01*
X266607011Y-13073065D02*
X266654630Y-13215922D01*
X266654630Y-13215922D02*
X266654630Y-13454017D01*
X266654630Y-11930208D02*
X266654630Y-12501636D01*
X266654630Y-12215922D02*
X265654630Y-12215922D01*
X265654630Y-12215922D02*
X265797488Y-12311160D01*
X265797488Y-12311160D02*
X265892726Y-12406398D01*
X265892726Y-12406398D02*
X265940345Y-12501636D01*
X266654630Y-10977827D02*
X266654630Y-11549255D01*
X266654630Y-11263541D02*
X265654630Y-11263541D01*
X265654630Y-11263541D02*
X265797488Y-11358779D01*
X265797488Y-11358779D02*
X265892726Y-11454017D01*
X265892726Y-11454017D02*
X265940345Y-11549255D01*
%TO.C,LED2*%
X46505952Y3982369D02*
X46029762Y3982369D01*
X46029762Y3982369D02*
X46029762Y4982369D01*
X46839286Y4506178D02*
X47172619Y4506178D01*
X47315476Y3982369D02*
X46839286Y3982369D01*
X46839286Y3982369D02*
X46839286Y4982369D01*
X46839286Y4982369D02*
X47315476Y4982369D01*
X47744048Y3982369D02*
X47744048Y4982369D01*
X47744048Y4982369D02*
X47982143Y4982369D01*
X47982143Y4982369D02*
X48125000Y4934750D01*
X48125000Y4934750D02*
X48220238Y4839511D01*
X48220238Y4839511D02*
X48267857Y4744273D01*
X48267857Y4744273D02*
X48315476Y4553797D01*
X48315476Y4553797D02*
X48315476Y4410940D01*
X48315476Y4410940D02*
X48267857Y4220464D01*
X48267857Y4220464D02*
X48220238Y4125226D01*
X48220238Y4125226D02*
X48125000Y4029988D01*
X48125000Y4029988D02*
X47982143Y3982369D01*
X47982143Y3982369D02*
X47744048Y3982369D01*
X48696429Y4887130D02*
X48744048Y4934750D01*
X48744048Y4934750D02*
X48839286Y4982369D01*
X48839286Y4982369D02*
X49077381Y4982369D01*
X49077381Y4982369D02*
X49172619Y4934750D01*
X49172619Y4934750D02*
X49220238Y4887130D01*
X49220238Y4887130D02*
X49267857Y4791892D01*
X49267857Y4791892D02*
X49267857Y4696654D01*
X49267857Y4696654D02*
X49220238Y4553797D01*
X49220238Y4553797D02*
X48648810Y3982369D01*
X48648810Y3982369D02*
X49267857Y3982369D01*
%TO.C,LED3*%
X6024702Y3982369D02*
X5548512Y3982369D01*
X5548512Y3982369D02*
X5548512Y4982369D01*
X6358036Y4506178D02*
X6691369Y4506178D01*
X6834226Y3982369D02*
X6358036Y3982369D01*
X6358036Y3982369D02*
X6358036Y4982369D01*
X6358036Y4982369D02*
X6834226Y4982369D01*
X7262798Y3982369D02*
X7262798Y4982369D01*
X7262798Y4982369D02*
X7500893Y4982369D01*
X7500893Y4982369D02*
X7643750Y4934750D01*
X7643750Y4934750D02*
X7738988Y4839511D01*
X7738988Y4839511D02*
X7786607Y4744273D01*
X7786607Y4744273D02*
X7834226Y4553797D01*
X7834226Y4553797D02*
X7834226Y4410940D01*
X7834226Y4410940D02*
X7786607Y4220464D01*
X7786607Y4220464D02*
X7738988Y4125226D01*
X7738988Y4125226D02*
X7643750Y4029988D01*
X7643750Y4029988D02*
X7500893Y3982369D01*
X7500893Y3982369D02*
X7262798Y3982369D01*
X8167560Y4982369D02*
X8786607Y4982369D01*
X8786607Y4982369D02*
X8453274Y4601416D01*
X8453274Y4601416D02*
X8596131Y4601416D01*
X8596131Y4601416D02*
X8691369Y4553797D01*
X8691369Y4553797D02*
X8738988Y4506178D01*
X8738988Y4506178D02*
X8786607Y4410940D01*
X8786607Y4410940D02*
X8786607Y4172845D01*
X8786607Y4172845D02*
X8738988Y4077607D01*
X8738988Y4077607D02*
X8691369Y4029988D01*
X8691369Y4029988D02*
X8596131Y3982369D01*
X8596131Y3982369D02*
X8310417Y3982369D01*
X8310417Y3982369D02*
X8215179Y4029988D01*
X8215179Y4029988D02*
X8167560Y4077607D01*
%TO.C,LED12*%
X248436011Y3982369D02*
X247959821Y3982369D01*
X247959821Y3982369D02*
X247959821Y4982369D01*
X248769345Y4506178D02*
X249102678Y4506178D01*
X249245535Y3982369D02*
X248769345Y3982369D01*
X248769345Y3982369D02*
X248769345Y4982369D01*
X248769345Y4982369D02*
X249245535Y4982369D01*
X249674107Y3982369D02*
X249674107Y4982369D01*
X249674107Y4982369D02*
X249912202Y4982369D01*
X249912202Y4982369D02*
X250055059Y4934750D01*
X250055059Y4934750D02*
X250150297Y4839511D01*
X250150297Y4839511D02*
X250197916Y4744273D01*
X250197916Y4744273D02*
X250245535Y4553797D01*
X250245535Y4553797D02*
X250245535Y4410940D01*
X250245535Y4410940D02*
X250197916Y4220464D01*
X250197916Y4220464D02*
X250150297Y4125226D01*
X250150297Y4125226D02*
X250055059Y4029988D01*
X250055059Y4029988D02*
X249912202Y3982369D01*
X249912202Y3982369D02*
X249674107Y3982369D01*
X251197916Y3982369D02*
X250626488Y3982369D01*
X250912202Y3982369D02*
X250912202Y4982369D01*
X250912202Y4982369D02*
X250816964Y4839511D01*
X250816964Y4839511D02*
X250721726Y4744273D01*
X250721726Y4744273D02*
X250626488Y4696654D01*
X251578869Y4887130D02*
X251626488Y4934750D01*
X251626488Y4934750D02*
X251721726Y4982369D01*
X251721726Y4982369D02*
X251959821Y4982369D01*
X251959821Y4982369D02*
X252055059Y4934750D01*
X252055059Y4934750D02*
X252102678Y4887130D01*
X252102678Y4887130D02*
X252150297Y4791892D01*
X252150297Y4791892D02*
X252150297Y4696654D01*
X252150297Y4696654D02*
X252102678Y4553797D01*
X252102678Y4553797D02*
X251531250Y3982369D01*
X251531250Y3982369D02*
X252150297Y3982369D01*
%TO.C,LED13*%
X217479761Y3982369D02*
X217003571Y3982369D01*
X217003571Y3982369D02*
X217003571Y4982369D01*
X217813095Y4506178D02*
X218146428Y4506178D01*
X218289285Y3982369D02*
X217813095Y3982369D01*
X217813095Y3982369D02*
X217813095Y4982369D01*
X217813095Y4982369D02*
X218289285Y4982369D01*
X218717857Y3982369D02*
X218717857Y4982369D01*
X218717857Y4982369D02*
X218955952Y4982369D01*
X218955952Y4982369D02*
X219098809Y4934750D01*
X219098809Y4934750D02*
X219194047Y4839511D01*
X219194047Y4839511D02*
X219241666Y4744273D01*
X219241666Y4744273D02*
X219289285Y4553797D01*
X219289285Y4553797D02*
X219289285Y4410940D01*
X219289285Y4410940D02*
X219241666Y4220464D01*
X219241666Y4220464D02*
X219194047Y4125226D01*
X219194047Y4125226D02*
X219098809Y4029988D01*
X219098809Y4029988D02*
X218955952Y3982369D01*
X218955952Y3982369D02*
X218717857Y3982369D01*
X220241666Y3982369D02*
X219670238Y3982369D01*
X219955952Y3982369D02*
X219955952Y4982369D01*
X219955952Y4982369D02*
X219860714Y4839511D01*
X219860714Y4839511D02*
X219765476Y4744273D01*
X219765476Y4744273D02*
X219670238Y4696654D01*
X220575000Y4982369D02*
X221194047Y4982369D01*
X221194047Y4982369D02*
X220860714Y4601416D01*
X220860714Y4601416D02*
X221003571Y4601416D01*
X221003571Y4601416D02*
X221098809Y4553797D01*
X221098809Y4553797D02*
X221146428Y4506178D01*
X221146428Y4506178D02*
X221194047Y4410940D01*
X221194047Y4410940D02*
X221194047Y4172845D01*
X221194047Y4172845D02*
X221146428Y4077607D01*
X221146428Y4077607D02*
X221098809Y4029988D01*
X221098809Y4029988D02*
X221003571Y3982369D01*
X221003571Y3982369D02*
X220717857Y3982369D01*
X220717857Y3982369D02*
X220622619Y4029988D01*
X220622619Y4029988D02*
X220575000Y4077607D01*
%TO.C,LED7*%
X117943452Y-80917130D02*
X117467262Y-80917130D01*
X117467262Y-80917130D02*
X117467262Y-79917130D01*
X118276786Y-80393321D02*
X118610119Y-80393321D01*
X118752976Y-80917130D02*
X118276786Y-80917130D01*
X118276786Y-80917130D02*
X118276786Y-79917130D01*
X118276786Y-79917130D02*
X118752976Y-79917130D01*
X119181548Y-80917130D02*
X119181548Y-79917130D01*
X119181548Y-79917130D02*
X119419643Y-79917130D01*
X119419643Y-79917130D02*
X119562500Y-79964750D01*
X119562500Y-79964750D02*
X119657738Y-80059988D01*
X119657738Y-80059988D02*
X119705357Y-80155226D01*
X119705357Y-80155226D02*
X119752976Y-80345702D01*
X119752976Y-80345702D02*
X119752976Y-80488559D01*
X119752976Y-80488559D02*
X119705357Y-80679035D01*
X119705357Y-80679035D02*
X119657738Y-80774273D01*
X119657738Y-80774273D02*
X119562500Y-80869511D01*
X119562500Y-80869511D02*
X119419643Y-80917130D01*
X119419643Y-80917130D02*
X119181548Y-80917130D01*
X120086310Y-79917130D02*
X120752976Y-79917130D01*
X120752976Y-79917130D02*
X120324405Y-80917130D01*
%TO.C,LED14*%
X179379761Y3982369D02*
X178903571Y3982369D01*
X178903571Y3982369D02*
X178903571Y4982369D01*
X179713095Y4506178D02*
X180046428Y4506178D01*
X180189285Y3982369D02*
X179713095Y3982369D01*
X179713095Y3982369D02*
X179713095Y4982369D01*
X179713095Y4982369D02*
X180189285Y4982369D01*
X180617857Y3982369D02*
X180617857Y4982369D01*
X180617857Y4982369D02*
X180855952Y4982369D01*
X180855952Y4982369D02*
X180998809Y4934750D01*
X180998809Y4934750D02*
X181094047Y4839511D01*
X181094047Y4839511D02*
X181141666Y4744273D01*
X181141666Y4744273D02*
X181189285Y4553797D01*
X181189285Y4553797D02*
X181189285Y4410940D01*
X181189285Y4410940D02*
X181141666Y4220464D01*
X181141666Y4220464D02*
X181094047Y4125226D01*
X181094047Y4125226D02*
X180998809Y4029988D01*
X180998809Y4029988D02*
X180855952Y3982369D01*
X180855952Y3982369D02*
X180617857Y3982369D01*
X182141666Y3982369D02*
X181570238Y3982369D01*
X181855952Y3982369D02*
X181855952Y4982369D01*
X181855952Y4982369D02*
X181760714Y4839511D01*
X181760714Y4839511D02*
X181665476Y4744273D01*
X181665476Y4744273D02*
X181570238Y4696654D01*
X182998809Y4649035D02*
X182998809Y3982369D01*
X182760714Y5029988D02*
X182522619Y4315702D01*
X182522619Y4315702D02*
X183141666Y4315702D01*
%TO.C,LED8*%
X181046577Y-80917130D02*
X180570387Y-80917130D01*
X180570387Y-80917130D02*
X180570387Y-79917130D01*
X181379911Y-80393321D02*
X181713244Y-80393321D01*
X181856101Y-80917130D02*
X181379911Y-80917130D01*
X181379911Y-80917130D02*
X181379911Y-79917130D01*
X181379911Y-79917130D02*
X181856101Y-79917130D01*
X182284673Y-80917130D02*
X182284673Y-79917130D01*
X182284673Y-79917130D02*
X182522768Y-79917130D01*
X182522768Y-79917130D02*
X182665625Y-79964750D01*
X182665625Y-79964750D02*
X182760863Y-80059988D01*
X182760863Y-80059988D02*
X182808482Y-80155226D01*
X182808482Y-80155226D02*
X182856101Y-80345702D01*
X182856101Y-80345702D02*
X182856101Y-80488559D01*
X182856101Y-80488559D02*
X182808482Y-80679035D01*
X182808482Y-80679035D02*
X182760863Y-80774273D01*
X182760863Y-80774273D02*
X182665625Y-80869511D01*
X182665625Y-80869511D02*
X182522768Y-80917130D01*
X182522768Y-80917130D02*
X182284673Y-80917130D01*
X183427530Y-80345702D02*
X183332292Y-80298083D01*
X183332292Y-80298083D02*
X183284673Y-80250464D01*
X183284673Y-80250464D02*
X183237054Y-80155226D01*
X183237054Y-80155226D02*
X183237054Y-80107607D01*
X183237054Y-80107607D02*
X183284673Y-80012369D01*
X183284673Y-80012369D02*
X183332292Y-79964750D01*
X183332292Y-79964750D02*
X183427530Y-79917130D01*
X183427530Y-79917130D02*
X183618006Y-79917130D01*
X183618006Y-79917130D02*
X183713244Y-79964750D01*
X183713244Y-79964750D02*
X183760863Y-80012369D01*
X183760863Y-80012369D02*
X183808482Y-80107607D01*
X183808482Y-80107607D02*
X183808482Y-80155226D01*
X183808482Y-80155226D02*
X183760863Y-80250464D01*
X183760863Y-80250464D02*
X183713244Y-80298083D01*
X183713244Y-80298083D02*
X183618006Y-80345702D01*
X183618006Y-80345702D02*
X183427530Y-80345702D01*
X183427530Y-80345702D02*
X183332292Y-80393321D01*
X183332292Y-80393321D02*
X183284673Y-80440940D01*
X183284673Y-80440940D02*
X183237054Y-80536178D01*
X183237054Y-80536178D02*
X183237054Y-80726654D01*
X183237054Y-80726654D02*
X183284673Y-80821892D01*
X183284673Y-80821892D02*
X183332292Y-80869511D01*
X183332292Y-80869511D02*
X183427530Y-80917130D01*
X183427530Y-80917130D02*
X183618006Y-80917130D01*
X183618006Y-80917130D02*
X183713244Y-80869511D01*
X183713244Y-80869511D02*
X183760863Y-80821892D01*
X183760863Y-80821892D02*
X183808482Y-80726654D01*
X183808482Y-80726654D02*
X183808482Y-80536178D01*
X183808482Y-80536178D02*
X183760863Y-80440940D01*
X183760863Y-80440940D02*
X183713244Y-80393321D01*
X183713244Y-80393321D02*
X183618006Y-80345702D01*
%TO.C,LED5*%
X-8744869Y-45172172D02*
X-8744869Y-45648362D01*
X-8744869Y-45648362D02*
X-9744869Y-45648362D01*
X-9268678Y-44838838D02*
X-9268678Y-44505505D01*
X-8744869Y-44362648D02*
X-8744869Y-44838838D01*
X-8744869Y-44838838D02*
X-9744869Y-44838838D01*
X-9744869Y-44838838D02*
X-9744869Y-44362648D01*
X-8744869Y-43934076D02*
X-9744869Y-43934076D01*
X-9744869Y-43934076D02*
X-9744869Y-43695981D01*
X-9744869Y-43695981D02*
X-9697250Y-43553124D01*
X-9697250Y-43553124D02*
X-9602011Y-43457886D01*
X-9602011Y-43457886D02*
X-9506773Y-43410267D01*
X-9506773Y-43410267D02*
X-9316297Y-43362648D01*
X-9316297Y-43362648D02*
X-9173440Y-43362648D01*
X-9173440Y-43362648D02*
X-8982964Y-43410267D01*
X-8982964Y-43410267D02*
X-8887726Y-43457886D01*
X-8887726Y-43457886D02*
X-8792488Y-43553124D01*
X-8792488Y-43553124D02*
X-8744869Y-43695981D01*
X-8744869Y-43695981D02*
X-8744869Y-43934076D01*
X-9744869Y-42457886D02*
X-9744869Y-42934076D01*
X-9744869Y-42934076D02*
X-9268678Y-42981695D01*
X-9268678Y-42981695D02*
X-9316297Y-42934076D01*
X-9316297Y-42934076D02*
X-9363916Y-42838838D01*
X-9363916Y-42838838D02*
X-9363916Y-42600743D01*
X-9363916Y-42600743D02*
X-9316297Y-42505505D01*
X-9316297Y-42505505D02*
X-9268678Y-42457886D01*
X-9268678Y-42457886D02*
X-9173440Y-42410267D01*
X-9173440Y-42410267D02*
X-8935345Y-42410267D01*
X-8935345Y-42410267D02*
X-8840107Y-42457886D01*
X-8840107Y-42457886D02*
X-8792488Y-42505505D01*
X-8792488Y-42505505D02*
X-8744869Y-42600743D01*
X-8744869Y-42600743D02*
X-8744869Y-42838838D01*
X-8744869Y-42838838D02*
X-8792488Y-42934076D01*
X-8792488Y-42934076D02*
X-8840107Y-42981695D01*
%TO.C,LED1*%
X84605952Y3982369D02*
X84129762Y3982369D01*
X84129762Y3982369D02*
X84129762Y4982369D01*
X84939286Y4506178D02*
X85272619Y4506178D01*
X85415476Y3982369D02*
X84939286Y3982369D01*
X84939286Y3982369D02*
X84939286Y4982369D01*
X84939286Y4982369D02*
X85415476Y4982369D01*
X85844048Y3982369D02*
X85844048Y4982369D01*
X85844048Y4982369D02*
X86082143Y4982369D01*
X86082143Y4982369D02*
X86225000Y4934750D01*
X86225000Y4934750D02*
X86320238Y4839511D01*
X86320238Y4839511D02*
X86367857Y4744273D01*
X86367857Y4744273D02*
X86415476Y4553797D01*
X86415476Y4553797D02*
X86415476Y4410940D01*
X86415476Y4410940D02*
X86367857Y4220464D01*
X86367857Y4220464D02*
X86320238Y4125226D01*
X86320238Y4125226D02*
X86225000Y4029988D01*
X86225000Y4029988D02*
X86082143Y3982369D01*
X86082143Y3982369D02*
X85844048Y3982369D01*
X87367857Y3982369D02*
X86796429Y3982369D01*
X87082143Y3982369D02*
X87082143Y4982369D01*
X87082143Y4982369D02*
X86986905Y4839511D01*
X86986905Y4839511D02*
X86891667Y4744273D01*
X86891667Y4744273D02*
X86796429Y4696654D01*
%TO.C,LED9*%
X234624702Y-61867130D02*
X234148512Y-61867130D01*
X234148512Y-61867130D02*
X234148512Y-60867130D01*
X234958036Y-61343321D02*
X235291369Y-61343321D01*
X235434226Y-61867130D02*
X234958036Y-61867130D01*
X234958036Y-61867130D02*
X234958036Y-60867130D01*
X234958036Y-60867130D02*
X235434226Y-60867130D01*
X235862798Y-61867130D02*
X235862798Y-60867130D01*
X235862798Y-60867130D02*
X236100893Y-60867130D01*
X236100893Y-60867130D02*
X236243750Y-60914750D01*
X236243750Y-60914750D02*
X236338988Y-61009988D01*
X236338988Y-61009988D02*
X236386607Y-61105226D01*
X236386607Y-61105226D02*
X236434226Y-61295702D01*
X236434226Y-61295702D02*
X236434226Y-61438559D01*
X236434226Y-61438559D02*
X236386607Y-61629035D01*
X236386607Y-61629035D02*
X236338988Y-61724273D01*
X236338988Y-61724273D02*
X236243750Y-61819511D01*
X236243750Y-61819511D02*
X236100893Y-61867130D01*
X236100893Y-61867130D02*
X235862798Y-61867130D01*
X236910417Y-61867130D02*
X237100893Y-61867130D01*
X237100893Y-61867130D02*
X237196131Y-61819511D01*
X237196131Y-61819511D02*
X237243750Y-61771892D01*
X237243750Y-61771892D02*
X237338988Y-61629035D01*
X237338988Y-61629035D02*
X237386607Y-61438559D01*
X237386607Y-61438559D02*
X237386607Y-61057607D01*
X237386607Y-61057607D02*
X237338988Y-60962369D01*
X237338988Y-60962369D02*
X237291369Y-60914750D01*
X237291369Y-60914750D02*
X237196131Y-60867130D01*
X237196131Y-60867130D02*
X237005655Y-60867130D01*
X237005655Y-60867130D02*
X236910417Y-60914750D01*
X236910417Y-60914750D02*
X236862798Y-60962369D01*
X236862798Y-60962369D02*
X236815179Y-61057607D01*
X236815179Y-61057607D02*
X236815179Y-61295702D01*
X236815179Y-61295702D02*
X236862798Y-61390940D01*
X236862798Y-61390940D02*
X236910417Y-61438559D01*
X236910417Y-61438559D02*
X237005655Y-61486178D01*
X237005655Y-61486178D02*
X237196131Y-61486178D01*
X237196131Y-61486178D02*
X237291369Y-61438559D01*
X237291369Y-61438559D02*
X237338988Y-61390940D01*
X237338988Y-61390940D02*
X237386607Y-61295702D01*
%TO.C,LED10*%
X266654630Y-45648363D02*
X266654630Y-46124553D01*
X266654630Y-46124553D02*
X265654630Y-46124553D01*
X266130821Y-45315029D02*
X266130821Y-44981696D01*
X266654630Y-44838839D02*
X266654630Y-45315029D01*
X266654630Y-45315029D02*
X265654630Y-45315029D01*
X265654630Y-45315029D02*
X265654630Y-44838839D01*
X266654630Y-44410267D02*
X265654630Y-44410267D01*
X265654630Y-44410267D02*
X265654630Y-44172172D01*
X265654630Y-44172172D02*
X265702250Y-44029315D01*
X265702250Y-44029315D02*
X265797488Y-43934077D01*
X265797488Y-43934077D02*
X265892726Y-43886458D01*
X265892726Y-43886458D02*
X266083202Y-43838839D01*
X266083202Y-43838839D02*
X266226059Y-43838839D01*
X266226059Y-43838839D02*
X266416535Y-43886458D01*
X266416535Y-43886458D02*
X266511773Y-43934077D01*
X266511773Y-43934077D02*
X266607011Y-44029315D01*
X266607011Y-44029315D02*
X266654630Y-44172172D01*
X266654630Y-44172172D02*
X266654630Y-44410267D01*
X266654630Y-42886458D02*
X266654630Y-43457886D01*
X266654630Y-43172172D02*
X265654630Y-43172172D01*
X265654630Y-43172172D02*
X265797488Y-43267410D01*
X265797488Y-43267410D02*
X265892726Y-43362648D01*
X265892726Y-43362648D02*
X265940345Y-43457886D01*
X265654630Y-42267410D02*
X265654630Y-42172172D01*
X265654630Y-42172172D02*
X265702250Y-42076934D01*
X265702250Y-42076934D02*
X265749869Y-42029315D01*
X265749869Y-42029315D02*
X265845107Y-41981696D01*
X265845107Y-41981696D02*
X266035583Y-41934077D01*
X266035583Y-41934077D02*
X266273678Y-41934077D01*
X266273678Y-41934077D02*
X266464154Y-41981696D01*
X266464154Y-41981696D02*
X266559392Y-42029315D01*
X266559392Y-42029315D02*
X266607011Y-42076934D01*
X266607011Y-42076934D02*
X266654630Y-42172172D01*
X266654630Y-42172172D02*
X266654630Y-42267410D01*
X266654630Y-42267410D02*
X266607011Y-42362648D01*
X266607011Y-42362648D02*
X266559392Y-42410267D01*
X266559392Y-42410267D02*
X266464154Y-42457886D01*
X266464154Y-42457886D02*
X266273678Y-42505505D01*
X266273678Y-42505505D02*
X266035583Y-42505505D01*
X266035583Y-42505505D02*
X265845107Y-42457886D01*
X265845107Y-42457886D02*
X265749869Y-42410267D01*
X265749869Y-42410267D02*
X265702250Y-42362648D01*
X265702250Y-42362648D02*
X265654630Y-42267410D01*
%TO.C,LED6*%
X54840327Y-80917130D02*
X54364137Y-80917130D01*
X54364137Y-80917130D02*
X54364137Y-79917130D01*
X55173661Y-80393321D02*
X55506994Y-80393321D01*
X55649851Y-80917130D02*
X55173661Y-80917130D01*
X55173661Y-80917130D02*
X55173661Y-79917130D01*
X55173661Y-79917130D02*
X55649851Y-79917130D01*
X56078423Y-80917130D02*
X56078423Y-79917130D01*
X56078423Y-79917130D02*
X56316518Y-79917130D01*
X56316518Y-79917130D02*
X56459375Y-79964750D01*
X56459375Y-79964750D02*
X56554613Y-80059988D01*
X56554613Y-80059988D02*
X56602232Y-80155226D01*
X56602232Y-80155226D02*
X56649851Y-80345702D01*
X56649851Y-80345702D02*
X56649851Y-80488559D01*
X56649851Y-80488559D02*
X56602232Y-80679035D01*
X56602232Y-80679035D02*
X56554613Y-80774273D01*
X56554613Y-80774273D02*
X56459375Y-80869511D01*
X56459375Y-80869511D02*
X56316518Y-80917130D01*
X56316518Y-80917130D02*
X56078423Y-80917130D01*
X57506994Y-79917130D02*
X57316518Y-79917130D01*
X57316518Y-79917130D02*
X57221280Y-79964750D01*
X57221280Y-79964750D02*
X57173661Y-80012369D01*
X57173661Y-80012369D02*
X57078423Y-80155226D01*
X57078423Y-80155226D02*
X57030804Y-80345702D01*
X57030804Y-80345702D02*
X57030804Y-80726654D01*
X57030804Y-80726654D02*
X57078423Y-80821892D01*
X57078423Y-80821892D02*
X57126042Y-80869511D01*
X57126042Y-80869511D02*
X57221280Y-80917130D01*
X57221280Y-80917130D02*
X57411756Y-80917130D01*
X57411756Y-80917130D02*
X57506994Y-80869511D01*
X57506994Y-80869511D02*
X57554613Y-80821892D01*
X57554613Y-80821892D02*
X57602232Y-80726654D01*
X57602232Y-80726654D02*
X57602232Y-80488559D01*
X57602232Y-80488559D02*
X57554613Y-80393321D01*
X57554613Y-80393321D02*
X57506994Y-80345702D01*
X57506994Y-80345702D02*
X57411756Y-80298083D01*
X57411756Y-80298083D02*
X57221280Y-80298083D01*
X57221280Y-80298083D02*
X57126042Y-80345702D01*
X57126042Y-80345702D02*
X57078423Y-80393321D01*
X57078423Y-80393321D02*
X57030804Y-80488559D01*
%TO.C,LED15*%
X129564011Y6490619D02*
X129087821Y6490619D01*
X129087821Y6490619D02*
X129087821Y7490619D01*
X129897345Y7014428D02*
X130230678Y7014428D01*
X130373535Y6490619D02*
X129897345Y6490619D01*
X129897345Y6490619D02*
X129897345Y7490619D01*
X129897345Y7490619D02*
X130373535Y7490619D01*
X130802107Y6490619D02*
X130802107Y7490619D01*
X130802107Y7490619D02*
X131040202Y7490619D01*
X131040202Y7490619D02*
X131183059Y7443000D01*
X131183059Y7443000D02*
X131278297Y7347761D01*
X131278297Y7347761D02*
X131325916Y7252523D01*
X131325916Y7252523D02*
X131373535Y7062047D01*
X131373535Y7062047D02*
X131373535Y6919190D01*
X131373535Y6919190D02*
X131325916Y6728714D01*
X131325916Y6728714D02*
X131278297Y6633476D01*
X131278297Y6633476D02*
X131183059Y6538238D01*
X131183059Y6538238D02*
X131040202Y6490619D01*
X131040202Y6490619D02*
X130802107Y6490619D01*
X132325916Y6490619D02*
X131754488Y6490619D01*
X132040202Y6490619D02*
X132040202Y7490619D01*
X132040202Y7490619D02*
X131944964Y7347761D01*
X131944964Y7347761D02*
X131849726Y7252523D01*
X131849726Y7252523D02*
X131754488Y7204904D01*
X133230678Y7490619D02*
X132754488Y7490619D01*
X132754488Y7490619D02*
X132706869Y7014428D01*
X132706869Y7014428D02*
X132754488Y7062047D01*
X132754488Y7062047D02*
X132849726Y7109666D01*
X132849726Y7109666D02*
X133087821Y7109666D01*
X133087821Y7109666D02*
X133183059Y7062047D01*
X133183059Y7062047D02*
X133230678Y7014428D01*
X133230678Y7014428D02*
X133278297Y6919190D01*
X133278297Y6919190D02*
X133278297Y6681095D01*
X133278297Y6681095D02*
X133230678Y6585857D01*
X133230678Y6585857D02*
X133183059Y6538238D01*
X133183059Y6538238D02*
X133087821Y6490619D01*
X133087821Y6490619D02*
X132849726Y6490619D01*
X132849726Y6490619D02*
X132754488Y6538238D01*
X132754488Y6538238D02*
X132706869Y6585857D01*
%TO.C,LED4*%
X-8744869Y-14215922D02*
X-8744869Y-14692112D01*
X-8744869Y-14692112D02*
X-9744869Y-14692112D01*
X-9268678Y-13882588D02*
X-9268678Y-13549255D01*
X-8744869Y-13406398D02*
X-8744869Y-13882588D01*
X-8744869Y-13882588D02*
X-9744869Y-13882588D01*
X-9744869Y-13882588D02*
X-9744869Y-13406398D01*
X-8744869Y-12977826D02*
X-9744869Y-12977826D01*
X-9744869Y-12977826D02*
X-9744869Y-12739731D01*
X-9744869Y-12739731D02*
X-9697250Y-12596874D01*
X-9697250Y-12596874D02*
X-9602011Y-12501636D01*
X-9602011Y-12501636D02*
X-9506773Y-12454017D01*
X-9506773Y-12454017D02*
X-9316297Y-12406398D01*
X-9316297Y-12406398D02*
X-9173440Y-12406398D01*
X-9173440Y-12406398D02*
X-8982964Y-12454017D01*
X-8982964Y-12454017D02*
X-8887726Y-12501636D01*
X-8887726Y-12501636D02*
X-8792488Y-12596874D01*
X-8792488Y-12596874D02*
X-8744869Y-12739731D01*
X-8744869Y-12739731D02*
X-8744869Y-12977826D01*
X-9411535Y-11549255D02*
X-8744869Y-11549255D01*
X-9792488Y-11787350D02*
X-9078202Y-12025445D01*
X-9078202Y-12025445D02*
X-9078202Y-11406398D01*
D11*
%TO.C,REF\u002A\u002A*%
X109315250Y-67056000D02*
X85947250Y-67056000D01*
X238347250Y-47244000D02*
X261715250Y-47244000D01*
X152177750Y-67056000D02*
X128809750Y-67056000D01*
%TD*%
%LPC*%
D12*
%TO.C,SW23*%
X37782500Y-19050000D03*
D13*
X42862500Y-19050000D03*
D12*
X47942500Y-19050000D03*
D14*
X39052500Y-16510000D03*
X45402500Y-13970000D03*
%TD*%
D12*
%TO.C,SW37*%
X252095000Y-19050000D03*
D13*
X257175000Y-19050000D03*
D12*
X262255000Y-19050000D03*
D14*
X253365000Y-16510000D03*
X259715000Y-13970000D03*
%TD*%
D12*
%TO.C,SW56*%
X213995000Y-38100000D03*
D13*
X219075000Y-38100000D03*
D12*
X224155000Y-38100000D03*
D14*
X215265000Y-35560000D03*
X221615000Y-33020000D03*
%TD*%
D12*
%TO.C,SW45*%
X80645000Y-38100000D03*
D13*
X85725000Y-38100000D03*
D12*
X90805000Y-38100000D03*
D14*
X81915000Y-35560000D03*
X88265000Y-33020000D03*
%TD*%
D12*
%TO.C,SW3*%
X33020000Y0D03*
D13*
X38100000Y0D03*
D12*
X43180000Y0D03*
D14*
X34290000Y2540000D03*
X40640000Y5080000D03*
%TD*%
D12*
%TO.C,SW57*%
X244951250Y-38100000D03*
D13*
X250031250Y-38100000D03*
D12*
X255111250Y-38100000D03*
D14*
X246221250Y-35560000D03*
X252571250Y-33020000D03*
%TD*%
D12*
%TO.C,SW62*%
X37782500Y-57150000D03*
D13*
X42862500Y-57150000D03*
D12*
X47942500Y-57150000D03*
D14*
X39052500Y-54610000D03*
X45402500Y-52070000D03*
%TD*%
D12*
%TO.C,SW81*%
X40163750Y-76200000D03*
D13*
X45243750Y-76200000D03*
D12*
X50323750Y-76200000D03*
D14*
X41433750Y-73660000D03*
X47783750Y-71120000D03*
%TD*%
D12*
%TO.C,SW16*%
X223520000Y0D03*
D13*
X228600000Y0D03*
D12*
X233680000Y0D03*
D14*
X224790000Y2540000D03*
X231140000Y5080000D03*
%TD*%
D12*
%TO.C,SW30*%
X123507500Y-19050000D03*
D13*
X128587500Y-19050000D03*
D12*
X133667500Y-19050000D03*
D14*
X124777500Y-16510000D03*
X131127500Y-13970000D03*
%TD*%
D12*
%TO.C,SW85*%
X166370000Y-76200000D03*
D13*
X171450000Y-76200000D03*
D12*
X176530000Y-76200000D03*
D14*
X167640000Y-73660000D03*
X173990000Y-71120000D03*
%TD*%
D12*
%TO.C,SW13*%
X166370000Y0D03*
D13*
X171450000Y0D03*
D12*
X176530000Y0D03*
D14*
X167640000Y2540000D03*
X173990000Y5080000D03*
%TD*%
D12*
%TO.C,SW70*%
X123507500Y-57150000D03*
D13*
X128587500Y-57150000D03*
D12*
X133667500Y-57150000D03*
D14*
X124777500Y-54610000D03*
X131127500Y-52070000D03*
%TD*%
D15*
%TO.C,REF\u002A\u002A*%
X109531250Y-83185000D03*
D16*
X109531250Y-67945000D03*
D15*
X85731250Y-83185000D03*
D16*
X85731250Y-67945000D03*
%TD*%
D12*
%TO.C,SW73*%
X180657500Y-57150000D03*
D13*
X185737500Y-57150000D03*
D12*
X190817500Y-57150000D03*
D14*
X181927500Y-54610000D03*
X188277500Y-52070000D03*
%TD*%
D12*
%TO.C,SW14*%
X185420000Y0D03*
D13*
X190500000Y0D03*
D12*
X195580000Y0D03*
D14*
X186690000Y2540000D03*
X193040000Y5080000D03*
%TD*%
D12*
%TO.C,SW36*%
X218757500Y-19050000D03*
D13*
X223837500Y-19050000D03*
D12*
X228917500Y-19050000D03*
D14*
X220027500Y-16510000D03*
X226377500Y-13970000D03*
%TD*%
D12*
%TO.C,SW75*%
X218757500Y-57150000D03*
D13*
X223837500Y-57150000D03*
D12*
X228917500Y-57150000D03*
D14*
X220027500Y-54610000D03*
X226377500Y-52070000D03*
%TD*%
D12*
%TO.C,SW32*%
X161607500Y-19050000D03*
D13*
X166687500Y-19050000D03*
D12*
X171767500Y-19050000D03*
D14*
X162877500Y-16510000D03*
X169227500Y-13970000D03*
%TD*%
D12*
%TO.C,SW34*%
X180657500Y-19050000D03*
D13*
X185737500Y-19050000D03*
D12*
X190817500Y-19050000D03*
D14*
X181927500Y-16510000D03*
X188277500Y-13970000D03*
%TD*%
D12*
%TO.C,SW71*%
X142557500Y-57150000D03*
D13*
X147637500Y-57150000D03*
D12*
X152717500Y-57150000D03*
D14*
X143827500Y-54610000D03*
X150177500Y-52070000D03*
%TD*%
D12*
%TO.C,SW1*%
X-9842500Y0D03*
D13*
X-4762500Y0D03*
D12*
X317500Y0D03*
D14*
X-8572500Y2540000D03*
X-2222500Y5080000D03*
%TD*%
D12*
%TO.C,SW72*%
X161607500Y-57150000D03*
D13*
X166687500Y-57150000D03*
D12*
X171767500Y-57150000D03*
D14*
X162877500Y-54610000D03*
X169227500Y-52070000D03*
%TD*%
D12*
%TO.C,SW82*%
X61595000Y-76200000D03*
D13*
X66675000Y-76200000D03*
D12*
X71755000Y-76200000D03*
D14*
X62865000Y-73660000D03*
X69215000Y-71120000D03*
%TD*%
D15*
%TO.C,REF\u002A\u002A*%
X238131250Y-31115000D03*
D16*
X238131250Y-46355000D03*
D15*
X261931250Y-31115000D03*
D16*
X261931250Y-46355000D03*
%TD*%
D12*
%TO.C,SW42*%
X42545000Y-38100000D03*
D13*
X47625000Y-38100000D03*
D12*
X52705000Y-38100000D03*
D14*
X43815000Y-35560000D03*
X50165000Y-33020000D03*
%TD*%
D12*
%TO.C,SW87*%
X211613750Y-76200000D03*
D13*
X216693750Y-76200000D03*
D12*
X221773750Y-76200000D03*
D14*
X212883750Y-73660000D03*
X219233750Y-71120000D03*
%TD*%
D12*
%TO.C,SW63*%
X56832500Y-57150000D03*
D13*
X61912500Y-57150000D03*
D12*
X66992500Y-57150000D03*
D14*
X58102500Y-54610000D03*
X64452500Y-52070000D03*
%TD*%
D12*
%TO.C,SW46*%
X99695000Y-38100000D03*
D13*
X104775000Y-38100000D03*
D12*
X109855000Y-38100000D03*
D14*
X100965000Y-35560000D03*
X107315000Y-33020000D03*
%TD*%
D12*
%TO.C,SW41*%
X23495000Y-38100000D03*
D13*
X28575000Y-38100000D03*
D12*
X33655000Y-38100000D03*
D14*
X24765000Y-35560000D03*
X31115000Y-33020000D03*
%TD*%
D12*
%TO.C,SW12*%
X147320000Y0D03*
D13*
X152400000Y0D03*
D12*
X157480000Y0D03*
D14*
X148590000Y2540000D03*
X154940000Y5080000D03*
%TD*%
D12*
%TO.C,SW54*%
X194945000Y-38100000D03*
D13*
X200025000Y-38100000D03*
D12*
X205105000Y-38100000D03*
D14*
X196215000Y-35560000D03*
X202565000Y-33020000D03*
%TD*%
D15*
%TO.C,REF\u002A\u002A*%
X152393750Y-83185000D03*
D16*
X152393750Y-67945000D03*
D15*
X128593750Y-83185000D03*
D16*
X128593750Y-67945000D03*
%TD*%
D12*
%TO.C,SW24*%
X56832500Y-19050000D03*
D13*
X61912500Y-19050000D03*
D12*
X66992500Y-19050000D03*
D14*
X58102500Y-16510000D03*
X64452500Y-13970000D03*
%TD*%
D12*
%TO.C,SW65*%
X94932500Y-57150000D03*
D13*
X100012500Y-57150000D03*
D12*
X105092500Y-57150000D03*
D14*
X96202500Y-54610000D03*
X102552500Y-52070000D03*
%TD*%
D12*
%TO.C,SW51*%
X137795000Y-38100000D03*
D13*
X142875000Y-38100000D03*
D12*
X147955000Y-38100000D03*
D14*
X139065000Y-35560000D03*
X145415000Y-33020000D03*
%TD*%
D12*
%TO.C,SW2*%
X13970000Y0D03*
D13*
X19050000Y0D03*
D12*
X24130000Y0D03*
D14*
X15240000Y2540000D03*
X21590000Y5080000D03*
%TD*%
D12*
%TO.C,SW17*%
X256857500Y0D03*
D13*
X261937500Y0D03*
D12*
X267017500Y0D03*
D14*
X258127500Y2540000D03*
X264477500Y5080000D03*
%TD*%
D12*
%TO.C,SW84*%
X135413750Y-76200000D03*
D13*
X140493750Y-76200000D03*
D12*
X145573750Y-76200000D03*
D14*
X136683750Y-73660000D03*
X143033750Y-71120000D03*
%TD*%
D12*
%TO.C,SW43*%
X61595000Y-38100000D03*
D13*
X66675000Y-38100000D03*
D12*
X71755000Y-38100000D03*
D14*
X62865000Y-35560000D03*
X69215000Y-33020000D03*
%TD*%
D12*
%TO.C,SW86*%
X187801250Y-76200000D03*
D13*
X192881250Y-76200000D03*
D12*
X197961250Y-76200000D03*
D14*
X189071250Y-73660000D03*
X195421250Y-71120000D03*
%TD*%
D12*
%TO.C,SW26*%
X94932500Y-19050000D03*
D13*
X100012500Y-19050000D03*
D12*
X105092500Y-19050000D03*
D14*
X96202500Y-16510000D03*
X102552500Y-13970000D03*
%TD*%
D12*
%TO.C,SW61*%
X18732500Y-57150000D03*
D13*
X23812500Y-57150000D03*
D12*
X28892500Y-57150000D03*
D14*
X20002500Y-54610000D03*
X26352500Y-52070000D03*
%TD*%
D12*
%TO.C,SW52*%
X156845000Y-38100000D03*
D13*
X161925000Y-38100000D03*
D12*
X167005000Y-38100000D03*
D14*
X158115000Y-35560000D03*
X164465000Y-33020000D03*
%TD*%
D12*
%TO.C,SW25*%
X75882500Y-19050000D03*
D13*
X80962500Y-19050000D03*
D12*
X86042500Y-19050000D03*
D14*
X77152500Y-16510000D03*
X83502500Y-13970000D03*
%TD*%
D12*
%TO.C,SW4*%
X52070000Y0D03*
D13*
X57150000Y0D03*
D12*
X62230000Y0D03*
D14*
X53340000Y2540000D03*
X59690000Y5080000D03*
%TD*%
D12*
%TO.C,SW21*%
X18732500Y-19050000D03*
D13*
X23812500Y-19050000D03*
D12*
X28892500Y-19050000D03*
D14*
X20002500Y-16510000D03*
X26352500Y-13970000D03*
%TD*%
D12*
%TO.C,SW60*%
X-7461250Y-57150000D03*
D13*
X-2381250Y-57150000D03*
D12*
X2698750Y-57150000D03*
D14*
X-6191250Y-54610000D03*
X158750Y-52070000D03*
%TD*%
D12*
%TO.C,SW6*%
X90170000Y0D03*
D13*
X95250000Y0D03*
D12*
X100330000Y0D03*
D14*
X91440000Y2540000D03*
X97790000Y5080000D03*
%TD*%
D12*
%TO.C,SW20*%
X-5080000Y-19050000D03*
D13*
X0Y-19050000D03*
D12*
X5080000Y-19050000D03*
D14*
X-3810000Y-16510000D03*
X2540000Y-13970000D03*
%TD*%
D12*
%TO.C,SW40*%
X-2698750Y-38100000D03*
D13*
X2381250Y-38100000D03*
D12*
X7461250Y-38100000D03*
D14*
X-1428750Y-35560000D03*
X4921250Y-33020000D03*
%TD*%
D12*
%TO.C,SW50*%
X118745000Y-38100000D03*
D13*
X123825000Y-38100000D03*
D12*
X128905000Y-38100000D03*
D14*
X120015000Y-35560000D03*
X126365000Y-33020000D03*
%TD*%
D12*
%TO.C,SW5*%
X71120000Y0D03*
D13*
X76200000Y0D03*
D12*
X81280000Y0D03*
D14*
X72390000Y2540000D03*
X78740000Y5080000D03*
%TD*%
D12*
%TO.C,SW74*%
X199707500Y-57150000D03*
D13*
X204787500Y-57150000D03*
D12*
X209867500Y-57150000D03*
D14*
X200977500Y-54610000D03*
X207327500Y-52070000D03*
%TD*%
D12*
%TO.C,SW76*%
X249713750Y-57150000D03*
D13*
X254793750Y-57150000D03*
D12*
X259873750Y-57150000D03*
D14*
X250983750Y-54610000D03*
X257333750Y-52070000D03*
%TD*%
D12*
%TO.C,SW53*%
X175895000Y-38100000D03*
D13*
X180975000Y-38100000D03*
D12*
X186055000Y-38100000D03*
D14*
X177165000Y-35560000D03*
X183515000Y-33020000D03*
%TD*%
D12*
%TO.C,SW35*%
X199707500Y-19050000D03*
D13*
X204787500Y-19050000D03*
D12*
X209867500Y-19050000D03*
D14*
X200977500Y-16510000D03*
X207327500Y-13970000D03*
%TD*%
D12*
%TO.C,SW80*%
X16351250Y-76200000D03*
D13*
X21431250Y-76200000D03*
D12*
X26511250Y-76200000D03*
D14*
X17621250Y-73660000D03*
X23971250Y-71120000D03*
%TD*%
D12*
%TO.C,SW83*%
X92551250Y-76200000D03*
D13*
X97631250Y-76200000D03*
D12*
X102711250Y-76200000D03*
D14*
X93821250Y-73660000D03*
X100171250Y-71120000D03*
%TD*%
D12*
%TO.C,SW10*%
X128270000Y0D03*
D13*
X133350000Y0D03*
D12*
X138430000Y0D03*
D14*
X129540000Y2540000D03*
X135890000Y5080000D03*
%TD*%
D12*
%TO.C,SW31*%
X142557500Y-19050000D03*
D13*
X147637500Y-19050000D03*
D12*
X152717500Y-19050000D03*
D14*
X143827500Y-16510000D03*
X150177500Y-13970000D03*
%TD*%
D12*
%TO.C,SW64*%
X75882500Y-57150000D03*
D13*
X80962500Y-57150000D03*
D12*
X86042500Y-57150000D03*
D14*
X77152500Y-54610000D03*
X83502500Y-52070000D03*
%TD*%
D12*
%TO.C,SW15*%
X204470000Y0D03*
D13*
X209550000Y0D03*
D12*
X214630000Y0D03*
D14*
X205740000Y2540000D03*
X212090000Y5080000D03*
%TD*%
D17*
%TO.C,LED11*%
X269081249Y-14746874D03*
D18*
X267681249Y-13096874D03*
X270481249Y-13096874D03*
D17*
X269081249Y-11446874D03*
%TD*%
D19*
%TO.C,LED2*%
X49274999Y7143749D03*
D20*
X47624999Y5743749D03*
X47624999Y8543749D03*
D19*
X45974999Y7143749D03*
%TD*%
%TO.C,LED3*%
X8793749Y7143749D03*
D20*
X7143749Y5743749D03*
X7143749Y8543749D03*
D19*
X5493749Y7143749D03*
%TD*%
%TO.C,LED12*%
X251681249Y7143749D03*
D20*
X250031249Y5743749D03*
X250031249Y8543749D03*
D19*
X248381249Y7143749D03*
%TD*%
%TO.C,LED13*%
X220724999Y7143749D03*
D20*
X219074999Y5743749D03*
X219074999Y8543749D03*
D19*
X217424999Y7143749D03*
%TD*%
%TO.C,LED7*%
X117412499Y-83343749D03*
D20*
X119062499Y-81943749D03*
X119062499Y-84743749D03*
D19*
X120712499Y-83343749D03*
%TD*%
%TO.C,LED14*%
X182624999Y7143749D03*
D20*
X180974999Y5743749D03*
X180974999Y8543749D03*
D19*
X179324999Y7143749D03*
%TD*%
%TO.C,LED8*%
X180515624Y-83343749D03*
D20*
X182165624Y-81943749D03*
X182165624Y-84743749D03*
D19*
X183815624Y-83343749D03*
%TD*%
D17*
%TO.C,LED5*%
X-11906249Y-42403124D03*
D18*
X-10506249Y-44053124D03*
X-13306249Y-44053124D03*
D17*
X-11906249Y-45703124D03*
%TD*%
D21*
%TO.C,J2*%
X111226999Y-48650999D03*
D22*
X111226999Y-49920999D03*
%TD*%
D19*
%TO.C,LED1*%
X87374999Y7143749D03*
D20*
X85724999Y5743749D03*
X85724999Y8543749D03*
D19*
X84074999Y7143749D03*
%TD*%
%TO.C,LED9*%
X234093749Y-64293749D03*
D20*
X235743749Y-62893749D03*
X235743749Y-65693749D03*
D19*
X237393749Y-64293749D03*
%TD*%
D17*
%TO.C,LED10*%
X269081249Y-45703124D03*
D18*
X267681249Y-44053124D03*
X270481249Y-44053124D03*
D17*
X269081249Y-42403124D03*
%TD*%
D19*
%TO.C,LED6*%
X54309374Y-83343749D03*
D20*
X55959374Y-81943749D03*
X55959374Y-84743749D03*
D19*
X57609374Y-83343749D03*
%TD*%
%TO.C,LED15*%
X126665624Y7143749D03*
D20*
X125015624Y5743749D03*
X125015624Y8543749D03*
D19*
X123365624Y7143749D03*
%TD*%
D17*
%TO.C,LED4*%
X-11906249Y-11446874D03*
D18*
X-10506249Y-13096874D03*
X-13306249Y-13096874D03*
D17*
X-11906249Y-14746874D03*
%TD*%
M02*
